<svg width="80" height="50" viewBox="0 0 80 50" fill="none" xmlns="http://www.w3.org/2000/svg">
<path d="M1.38435 41.0894H0.246948V49.9033H1.38435V41.0894Z" fill="#BF902D"/>
<path fill-rule="evenodd" clip-rule="evenodd" d="M8.08572 47.908H8.06386L3.44182 41.0894H2.41827V49.9033H3.50392V43.087H3.52807L8.15702 49.9033H9.17596V41.0894H8.08572V47.908Z" fill="#BF902D"/>
<path fill-rule="evenodd" clip-rule="evenodd" d="M11.8604 49.8998H12.9587V42.1325H15.1449V41.0894H9.67413V42.1325H11.8604V49.8998Z" fill="#BF902D"/>
<path fill-rule="evenodd" clip-rule="evenodd" d="M15.4424 49.8722H19.9862V48.8349H16.551V45.9587H19.9862V44.919H16.551V42.1325H19.9862V41.0894H15.4424V49.8722Z" fill="#BF902D"/>
<path fill-rule="evenodd" clip-rule="evenodd" d="M65.2814 47.8965H65.2538L60.5973 41.0894H59.5737V49.8872H60.6686V43.0836H60.6904L65.347 49.8872H66.3717V41.0894H65.2814V47.8965Z" fill="#BF902D"/>
<path fill-rule="evenodd" clip-rule="evenodd" d="M25.3005 49.9159H26.845L23.457 46.3945C24.8773 46.3152 26.1044 45.3422 26.1044 43.7598C26.1044 42.0669 24.8543 41.0894 23.1856 41.0894H20.6785V49.9159H21.7745V46.1542L25.3005 49.9159ZM21.7756 42.0658H23.1591C24.3046 42.0658 25.0061 42.7386 25.0061 43.7702C25.0061 44.7373 24.4196 45.4803 22.7394 45.4803C22.085 45.4803 21.9297 45.4803 21.7756 45.4676V42.0658Z" fill="#BF902D"/>
<path fill-rule="evenodd" clip-rule="evenodd" d="M33.2775 47.8965H33.2533L28.5956 41.0894H27.5698V49.8872H28.6658V43.0836H28.6853L33.3453 49.8872H34.37V41.0894H33.2775V47.8965Z" fill="#BF902D"/>
<path fill-rule="evenodd" clip-rule="evenodd" d="M41.7509 49.8998H42.9677L39.3876 41.0894H38.4112L34.8322 49.8998H36.0513L36.8482 47.8459H40.9493L41.7509 49.8998ZM40.571 46.8741H37.2301L38.9034 42.55L40.571 46.8741Z" fill="#BF902D"/>
<path fill-rule="evenodd" clip-rule="evenodd" d="M43.7222 49.8918H44.8366V42.1325H47.0355V41.0894H41.5233V42.1325H43.7222V49.8918Z" fill="#BF902D"/>
<path d="M48.5263 41.0894H47.4153V49.8906H48.5263V41.0894Z" fill="#BF902D"/>
<path fill-rule="evenodd" clip-rule="evenodd" d="M49.3961 45.4907C49.3961 47.6516 51.0637 50 54.0285 50C56.991 50 58.6609 47.6505 58.6609 45.4907C58.6609 43.3321 56.9922 40.9883 54.0285 40.9883C51.0637 40.9895 49.3961 43.3333 49.3961 45.4907ZM50.5669 45.4907C50.5669 43.4253 52.2471 42.0199 54.0285 42.0199C55.8099 42.0199 57.4856 43.4253 57.4856 45.4907C57.4856 47.5631 55.8088 48.9627 54.0285 48.9627C52.2471 48.9638 50.5669 47.5631 50.5669 45.4907Z" fill="#BF902D"/>
<path fill-rule="evenodd" clip-rule="evenodd" d="M75.2558 49.8998H79.4247V48.8556H76.3587V41.0894H75.2558V49.8998Z" fill="#BF902D"/>
<path fill-rule="evenodd" clip-rule="evenodd" d="M73.7195 49.8998H74.9362L71.3538 41.0894H70.3786L66.7939 49.8998H68.0164L68.8157 47.8459H72.9179L73.7195 49.8998ZM72.5372 46.8741H69.1963L70.8674 42.55L72.5372 46.8741Z" fill="#BF902D"/>
<path fill-rule="evenodd" clip-rule="evenodd" d="M58.2174 17.6851C61.4284 17.4562 64.8785 17.2561 67.7732 17.3769L59.4491 18.6902C60.2588 19.4998 65.8676 22.2208 67.0061 22.7705C67.5213 22.9844 68.4828 23.5733 68.9957 23.8539C72.4493 25.6985 72.9622 29.3786 70.2504 31.6086C66.3471 34.8103 61.4307 32.4389 59.0386 28.5667L54.4763 33.5521C55.6448 35.2749 56.8546 36.3996 58.5406 37.2702C63.5663 39.8532 70.0353 39.936 74.7793 36.6584C78.6435 33.9891 80.7745 29.2625 79.0747 24.6991C78.4456 22.9971 77.5463 21.724 76.509 20.6913C73.5131 17.7081 69.2602 16.765 65.5582 14.3914C63.1189 12.825 61.6998 10.5652 63.3673 8.19842C66.1677 4.3435 71.6167 5.82704 73.6453 9.368L78.5618 4.83111C77.138 3.30617 75.9834 2.29183 74.1307 1.3557C68.569 -1.44578 59.0754 0.102164 56.122 5.9294C53.3401 11.4128 55.8702 15.155 58.2174 17.6851Z" fill="#828181"/>
<path fill-rule="evenodd" clip-rule="evenodd" d="M11.685 16.0521H7.95194V6.63901C8.82368 6.63901 12.3129 6.58381 13.0133 6.70686C14.6866 6.99322 16.1633 8.42386 16.4692 10.1133C17.0937 13.5829 15.2156 16.0521 11.685 16.0521ZM0.00164795 32.1997L7.93584 28.9716C7.93584 26.5139 7.92089 24.0517 7.90824 21.5929H12.6855C14.7234 21.5929 17.0718 23.671 17.0718 25.7411L23.971 23.6285C22.9946 21.3641 19.5766 19.0858 16.3921 18.8604V18.2061C18.3771 18.2061 21.0268 16.6627 22.3218 15.2045C23.1751 14.2465 23.5673 13.0045 23.8445 11.7739C23.9951 10.8573 23.9123 9.98791 23.7801 9.16679C22.9095 3.73056 17.0281 0.977379 11.685 0.977379L0.00164795 0.98888V32.1997Z" fill="#828181"/>
<path fill-rule="evenodd" clip-rule="evenodd" d="M0.00115117 38.0223C1.31451 38.0223 12.4976 38.0591 12.8254 38.0039C14.3538 37.9119 16.402 37.6612 17.7614 37.0379L18.556 36.7193C19.2817 36.3674 19.2599 36.4169 19.9948 35.9684C20.0626 35.9247 20.0741 35.9304 20.1305 35.9005L21.1218 35.2174C22.4754 34.149 23.5036 32.9012 24.1924 31.3142C24.81 29.8939 24.9653 28.829 24.9653 27.2534L16.203 30.5644L7.0797 34.4584L0 37.9108V38.0223H0.00115117Z" fill="#828181"/>
<path fill-rule="evenodd" clip-rule="evenodd" d="M31.1412 0.819908H39.1179V20.0761L31.1412 21.7552V0.819908Z" fill="#828181"/>
<path fill-rule="evenodd" clip-rule="evenodd" d="M31.1412 25.3824L39.1099 23.0708L39.1179 31.741H51.6362V37.8649H31.1412V25.3824Z" fill="#828181"/>
</svg>
