<svg width="128" height="80" viewBox="0 0 128 80" fill="none" xmlns="http://www.w3.org/2000/svg">
<path d="M2.21194 65.7433H0.392151V79.8455H2.21194V65.7433Z" fill="white"/>
<path fill-rule="evenodd" clip-rule="evenodd" d="M12.9355 76.653H12.9006L5.50547 65.7433H3.86784V79.8455H5.60483V68.9395H5.64347L13.0496 79.8455H14.6799V65.7433H12.9355V76.653Z" fill="white"/>
<path fill-rule="evenodd" clip-rule="evenodd" d="M18.9803 79.84H20.7376V67.4122H24.2354V65.7433H15.4824V67.4122H18.9803V79.84Z" fill="white"/>
<path fill-rule="evenodd" clip-rule="evenodd" d="M24.7047 79.7958H31.9746V78.1361H26.4784V73.5341H31.9746V71.8707H26.4784V67.4122H31.9746V65.7433H24.7047V79.7958Z" fill="white"/>
<path fill-rule="evenodd" clip-rule="evenodd" d="M104.45 76.6346H104.406L96.956 65.7433H95.3184V79.8197H97.0701V68.934H97.105L104.555 79.8197H106.195V65.7433H104.45V76.6346Z" fill="white"/>
<path fill-rule="evenodd" clip-rule="evenodd" d="M40.4808 79.8658H42.952L37.5312 74.2315C39.8037 74.1045 41.767 72.5478 41.767 70.0159C41.767 67.3073 39.7669 65.7433 37.097 65.7433H33.0857V79.8658H34.8393V73.8469L40.4808 79.8658ZM34.8411 67.3055H37.0547C38.8873 67.3055 40.0098 68.3819 40.0098 70.0325C40.0098 71.58 39.0713 72.7686 36.3831 72.7686C35.3361 72.7686 35.0877 72.7686 34.8411 72.7484V67.3055Z" fill="white"/>
<path fill-rule="evenodd" clip-rule="evenodd" d="M53.2421 76.6346H53.2035L45.7513 65.7433H44.11V79.8197H45.8636V68.934H45.8949L53.3507 79.8197H54.9901V65.7433H53.2421V76.6346Z" fill="white"/>
<path fill-rule="evenodd" clip-rule="evenodd" d="M66.8029 79.84H68.7497L63.0216 65.7433H61.4595L55.7333 79.84H57.6837L58.9589 76.5536H65.5204L66.8029 79.84ZM64.915 74.9988H59.5698L62.247 68.0802L64.915 74.9988Z" fill="white"/>
<path fill-rule="evenodd" clip-rule="evenodd" d="M69.9554 79.8271H71.7384V67.4122H75.2566V65.7433H66.4373V67.4122H69.9554V79.8271Z" fill="white"/>
<path d="M77.6436 65.7433H75.8661V79.8253H77.6436V65.7433Z" fill="white"/>
<path fill-rule="evenodd" clip-rule="evenodd" d="M79.0319 72.7852C79.0319 76.2427 81.6999 80.0001 86.4435 80.0001C91.1835 80.0001 93.8552 76.2408 93.8552 72.7852C93.8552 69.3314 91.1853 65.5814 86.4435 65.5814C81.6999 65.5832 79.0319 69.3332 79.0319 72.7852ZM80.9051 72.7852C80.9051 69.4805 83.5933 67.2319 86.4435 67.2319C89.2938 67.2319 91.9747 69.4805 91.9747 72.7852C91.9747 76.101 89.2919 78.3403 86.4435 78.3403C83.5933 78.3422 80.9051 76.101 80.9051 72.7852Z" fill="white"/>
<path fill-rule="evenodd" clip-rule="evenodd" d="M120.406 79.84H127.076V78.1692H122.171V65.7433H120.406V79.84Z" fill="white"/>
<path fill-rule="evenodd" clip-rule="evenodd" d="M117.949 79.84H119.895L114.164 65.7433H112.603L106.868 79.84H108.824L110.103 76.5536H116.666L117.949 79.84ZM116.057 74.9988H110.712L113.385 68.0802L116.057 74.9988Z" fill="white"/>
<path fill-rule="evenodd" clip-rule="evenodd" d="M93.1488 28.2961C98.2862 27.93 103.806 27.6098 108.438 27.803L95.1195 29.9043C96.4149 31.1997 105.389 35.5533 107.21 36.4329C108.035 36.7751 109.573 37.7172 110.394 38.1662C115.919 41.1177 116.74 47.0059 112.401 50.5737C106.156 55.6965 98.2899 51.9023 94.4626 45.7068L87.1632 53.6834C89.0327 56.4398 90.9684 58.2394 93.6659 59.6323C101.707 63.7651 112.057 63.8976 119.647 58.6534C125.83 54.3827 129.239 46.82 126.52 39.5187C125.513 36.7954 124.074 34.7584 122.415 33.106C117.621 28.3329 110.817 26.8241 104.894 23.0262C100.991 20.52 98.7204 16.9043 101.388 13.1175C105.869 6.94958 114.587 9.32326 117.833 14.9888L125.699 7.72977C123.421 5.28985 121.574 3.66691 118.609 2.16911C109.711 -2.31328 94.5215 0.163438 89.7963 9.48702C85.3453 18.2604 89.3933 24.248 93.1488 28.2961Z" fill="white"/>
<path fill-rule="evenodd" clip-rule="evenodd" d="M18.6937 25.6832H12.721V10.6223C14.1157 10.6223 19.6984 10.534 20.819 10.7309C23.4962 11.1891 25.8588 13.4781 26.3483 16.1812C27.3474 21.7326 24.3426 25.6832 18.6937 25.6832ZM0.000869751 51.5195L12.6952 46.3545C12.6952 42.4223 12.6713 38.4827 12.6511 34.5486H20.2946C23.5551 34.5486 27.3124 37.8736 27.3124 41.1857L38.3508 37.8055C36.7886 34.1825 31.32 30.5373 26.225 30.1767V29.1297C29.4009 29.1297 33.6403 26.6603 35.7122 24.3271C37.0775 22.7943 37.7049 20.8071 38.1484 18.8382C38.3894 17.3717 38.2569 15.9806 38.0453 14.6668C36.6524 5.96882 27.2425 1.56372 18.6937 1.56372L0.000869751 1.58212V51.5195Z" fill="white"/>
<path fill-rule="evenodd" clip-rule="evenodd" d="M0.00184183 60.8357C2.10316 60.8357 19.9956 60.8945 20.52 60.8062C22.9654 60.659 26.2425 60.2579 28.4174 59.2606L29.6889 58.7509C30.85 58.1878 30.815 58.2669 31.9908 57.5493C32.0993 57.4794 32.1177 57.4886 32.2079 57.4408L33.794 56.3478C35.9597 54.6383 37.6047 52.6419 38.7069 50.1026C39.695 47.8301 39.9434 46.1262 39.9434 43.6053L25.9242 48.9029L11.3272 55.1333L0 60.6572V60.8357H0.00184183Z" fill="white"/>
<path fill-rule="evenodd" clip-rule="evenodd" d="M49.8273 1.31171H62.5897V32.1217L49.8273 34.8082V1.31171Z" fill="white"/>
<path fill-rule="evenodd" clip-rule="evenodd" d="M49.8273 40.6117L62.5768 36.9131L62.5897 50.7854H82.6184V60.5837H49.8273V40.6117Z" fill="white"/>
</svg>
