<svg width="80" height="50" viewBox="0 0 80 50" fill="none" xmlns="http://www.w3.org/2000/svg">
<path d="M1.38423 41.0895H0.246826V49.9034H1.38423V41.0895Z" fill="white"/>
<path fill-rule="evenodd" clip-rule="evenodd" d="M8.08565 47.908H8.0638L3.44176 41.0895H2.41821V49.9034H3.50386V43.0871H3.52801L8.15696 49.9034H9.1759V41.0895H8.08565V47.908Z" fill="white"/>
<path fill-rule="evenodd" clip-rule="evenodd" d="M11.8603 49.8999H12.9586V42.1326H15.1449V41.0895H9.67407V42.1326H11.8603V49.8999Z" fill="white"/>
<path fill-rule="evenodd" clip-rule="evenodd" d="M15.4424 49.8723H19.9862V48.835H16.551V45.9587H19.9862V44.9191H16.551V42.1326H19.9862V41.0895H15.4424V49.8723Z" fill="white"/>
<path fill-rule="evenodd" clip-rule="evenodd" d="M65.2813 47.8965H65.2537L60.5972 41.0895H59.5736V49.8873H60.6685V43.0836H60.6903L65.3469 49.8873H66.3716V41.0895H65.2813V47.8965Z" fill="white"/>
<path fill-rule="evenodd" clip-rule="evenodd" d="M25.3004 49.916H26.8449L23.4569 46.3946C24.8772 46.3152 26.1043 45.3423 26.1043 43.7599C26.1043 42.067 24.8542 41.0895 23.1855 41.0895H20.6783V49.916H21.7743V46.1542L25.3004 49.916ZM21.7755 42.0659H23.159C24.3044 42.0659 25.006 42.7386 25.006 43.7702C25.006 44.7374 24.4195 45.4803 22.7392 45.4803C22.0849 45.4803 21.9296 45.4803 21.7755 45.4677V42.0659Z" fill="white"/>
<path fill-rule="evenodd" clip-rule="evenodd" d="M33.2774 47.8965H33.2532L28.5955 41.0895H27.5697V49.8873H28.6657V43.0836H28.6853L33.3453 49.8873H34.3699V41.0895H33.2774V47.8965Z" fill="white"/>
<path fill-rule="evenodd" clip-rule="evenodd" d="M41.7508 49.8999H42.9676L39.3875 41.0895H38.4111L34.8322 49.8999H36.0512L36.8482 47.8459H40.9493L41.7508 49.8999ZM40.5709 46.8742H37.23L38.9033 42.55L40.5709 46.8742Z" fill="white"/>
<path fill-rule="evenodd" clip-rule="evenodd" d="M43.7222 49.8919H44.8366V42.1326H47.0355V41.0895H41.5233V42.1326H43.7222V49.8919Z" fill="white"/>
<path d="M48.5262 41.0895H47.4153V49.8907H48.5262V41.0895Z" fill="white"/>
<path fill-rule="evenodd" clip-rule="evenodd" d="M49.396 45.4907C49.396 47.6517 51.0636 50 54.0284 50C56.9909 50 58.6608 47.6505 58.6608 45.4907C58.6608 43.3321 56.9921 40.9883 54.0284 40.9883C51.0636 40.9895 49.396 43.3333 49.396 45.4907ZM50.5667 45.4907C50.5667 43.4253 52.247 42.0199 54.0284 42.0199C55.8098 42.0199 57.4854 43.4253 57.4854 45.4907C57.4854 47.5631 55.8087 48.9627 54.0284 48.9627C52.247 48.9638 50.5667 47.5631 50.5667 45.4907Z" fill="white"/>
<path fill-rule="evenodd" clip-rule="evenodd" d="M75.2557 49.8999H79.4247V48.8557H76.3586V41.0895H75.2557V49.8999Z" fill="white"/>
<path fill-rule="evenodd" clip-rule="evenodd" d="M73.7194 49.8999H74.9362L71.3538 41.0895H70.3785L66.7938 49.8999H68.0163L68.8156 47.8459H72.9178L73.7194 49.8999ZM72.5372 46.8742H69.1963L70.8673 42.55L72.5372 46.8742Z" fill="white"/>
<path fill-rule="evenodd" clip-rule="evenodd" d="M58.2174 17.6851C61.4284 17.4562 64.8785 17.2561 67.7732 17.3768L59.4491 18.6902C60.2588 19.4998 65.8676 22.2208 67.0061 22.7705C67.5213 22.9844 68.4828 23.5732 68.9957 23.8538C72.4493 25.6985 72.9622 29.3786 70.2504 31.6085C66.3471 34.8102 61.4307 32.4389 59.0386 28.5667L54.4763 33.5521C55.6448 35.2749 56.8546 36.3996 58.5406 37.2702C63.5663 39.8531 70.0353 39.936 74.7793 36.6583C78.6435 33.9891 80.7745 29.2625 79.0747 24.6991C78.4456 22.9971 77.5463 21.724 76.509 20.6912C73.5131 17.7081 69.2602 16.765 65.5582 14.3913C63.1189 12.825 61.6998 10.5652 63.3673 8.1984C66.1677 4.34348 71.6167 5.82703 73.6453 9.36799L78.5618 4.8311C77.138 3.30615 75.9834 2.29182 74.1307 1.35569C68.569 -1.4458 59.0754 0.102149 56.122 5.92938C53.3401 11.4128 55.8702 15.155 58.2174 17.6851Z" fill="white"/>
<path fill-rule="evenodd" clip-rule="evenodd" d="M11.6851 16.0521H7.952V6.63905C8.82374 6.63905 12.313 6.58384 13.0134 6.7069C14.6867 6.99326 16.1633 8.4239 16.4693 10.1133C17.0937 13.583 15.2157 16.0521 11.6851 16.0521ZM0.00170898 32.1997L7.9359 28.9716C7.9359 26.514 7.92095 24.0517 7.9083 21.593H12.6856C14.7235 21.593 17.0719 23.6711 17.0719 25.7411L23.971 23.6285C22.9946 21.3641 19.5767 19.0859 16.3922 18.8605V18.2061C18.3772 18.2061 21.0269 16.6628 22.3219 15.2045C23.1752 14.2465 23.5674 13.0045 23.8445 11.774C23.9952 10.8574 23.9124 9.98795 23.7801 9.16682C22.9095 3.7306 17.0282 0.977417 11.6851 0.977417L0.00170898 0.988918V32.1997Z" fill="white"/>
<path fill-rule="evenodd" clip-rule="evenodd" d="M0.00115117 38.0224C1.31451 38.0224 12.4976 38.0592 12.8254 38.004C14.3538 37.9119 16.402 37.6612 17.7614 37.0379L18.556 36.7194C19.2817 36.3675 19.2599 36.4169 19.9948 35.9684C20.0626 35.9247 20.0741 35.9304 20.1305 35.9005L21.1218 35.2174C22.4754 34.149 23.5036 32.9012 24.1924 31.3142C24.81 29.8939 24.9653 28.829 24.9653 27.2534L16.203 30.5644L7.0797 34.4584L0 37.9108V38.0224H0.00115117Z" fill="white"/>
<path fill-rule="evenodd" clip-rule="evenodd" d="M31.1412 0.819946H39.118V20.0762L31.1412 21.7552V0.819946Z" fill="white"/>
<path fill-rule="evenodd" clip-rule="evenodd" d="M31.1412 25.3824L39.1099 23.0709L39.118 31.741H51.6363V37.8649H31.1412V25.3824Z" fill="white"/>
</svg>
