<svg width="83" height="67" viewBox="0 0 83 67" fill="none" xmlns="http://www.w3.org/2000/svg">
<path d="M46.4756 6.08437C46.5997 6.08437 46.7172 6.10393 46.8282 6.13652C47.3572 6.27341 47.749 6.75577 47.749 7.32939V22.7911L61.09 9.47396C61.5405 9.02418 62.1217 8.80908 62.7094 8.80908C63.2906 8.80908 63.8783 9.02418 64.3289 9.47396L68.9326 14.0694C69.1481 14.2846 69.2003 14.6496 69.0306 14.9364C68.4951 15.7838 68.2992 16.7876 68.4102 17.7524C68.5278 18.6845 68.9457 19.6036 69.677 20.3337C70.3954 21.0637 71.3096 21.4809 72.263 21.5982C73.2164 21.7156 74.1959 21.5135 75.0513 21.0181C75.3321 20.8356 75.7174 20.8486 75.9655 21.1028L80.5693 25.6983C81.0198 26.1481 81.2353 26.7282 81.2353 27.3149C81.2353 27.895 81.0198 28.4817 80.5693 28.9315L47.749 61.6931V63.968C47.749 64.6459 47.1939 65.2 46.5148 65.2H4.53931C3.56633 65.2 2.68477 64.8024 2.04482 64.1636C1.39834 63.5182 1 62.6317 1 61.6605V4.34395C1 4.14188 1.04571 3.95285 1.13713 3.78337C1.31344 3.13804 1.65301 2.56442 2.11012 2.10813C2.79578 1.4237 3.74264 1 4.78093 1H30.4272C31.1064 1 31.6614 1.55407 31.6614 2.23198C31.6614 2.9099 31.1064 3.46397 30.4272 3.46397H4.78093C4.42177 3.46397 4.09527 3.61389 3.85365 3.84855C3.61857 4.08973 3.46838 4.41566 3.46838 4.77417C3.46838 5.13268 3.61857 5.4586 3.85365 5.69979C4.09527 5.94097 4.42177 6.08437 4.78093 6.08437H46.4756ZM47.749 24.8249V32.0342C47.9253 32.0668 48.1277 32.1125 48.3628 32.1711L49.499 31.0369L50.5439 32.0799L50.0606 32.5622L51.3079 32.8556L52.5812 31.5845L53.6326 32.6339L53.0122 33.2532L54.5991 33.6182L57.2699 30.9522C57.6421 30.5806 58.3604 30.6784 58.8567 31.1738C59.353 31.6692 59.4574 32.3862 59.0787 32.7578L56.4079 35.4238L56.7736 36.9948L57.3874 36.382L58.4387 37.4315L57.1719 38.6961L57.4592 39.9411L57.9359 39.4652L58.9873 40.5147L57.8576 41.6424L57.8641 41.6685C58.4061 44.0412 57.9229 43.2981 56.1206 45.0972L53.5085 38.331L50.9226 40.9123C51.0989 42.1639 51.1773 43.1677 50.1912 44.152L49.0876 43.0765C49.0028 42.5485 48.9636 42.1704 48.9179 41.8966C48.7546 41.8184 48.5914 41.7076 48.4477 41.5707C48.3236 41.4468 48.2191 41.3034 48.1473 41.16C48.0363 41.147 47.8992 41.134 47.749 41.1144V52.2023L51.5038 55.9504L72.8311 34.6546L55.3696 17.2178L47.749 24.8249ZM47.749 34.9806V38.9177C48.1734 38.9047 48.6175 38.9829 49.1203 39.0807L51.6997 36.5059L47.749 34.9806ZM47.749 54.1708V59.6919L50.5177 56.9281L47.749 54.1708ZM73.8237 33.6704L56.3556 16.2336L62.1087 10.4908C62.2784 10.3214 62.4939 10.2431 62.729 10.2431C62.9445 10.2431 63.1796 10.3279 63.3494 10.4908L67.5678 14.7017C67.0846 15.7186 66.9018 16.8333 67.0324 17.9349C67.5156 21.9502 71.7863 24.1991 75.3713 22.4978L79.5897 26.7087C79.7595 26.8782 79.8379 27.0933 79.8379 27.3279C79.8379 27.543 79.753 27.7777 79.5897 27.9472L79.5701 27.9276L73.8237 33.6704ZM45.2806 8.54834H4.78093C4.31729 8.54834 3.87324 8.4636 3.46838 8.31368V61.6605C3.46838 61.9538 3.59245 62.2211 3.78182 62.4166C3.97773 62.6122 4.24546 62.7295 4.53931 62.7295H45.2806V8.54834Z" fill="#BF902D"/>
<path d="M14.5174 55.5788C14.5174 56.2567 15.0724 56.8108 15.7516 56.8108H32.9584C33.6375 56.8108 34.1926 56.2567 34.1926 55.5788C34.1926 54.9009 33.6375 54.3468 32.9584 54.3468H15.7516C15.0724 54.3468 14.5174 54.9009 14.5174 55.5788Z" fill="#BF902D"/>
<path d="M9.49572 49.1256C9.49572 49.8035 10.0508 50.3575 10.7299 50.3575H37.9865C38.6657 50.3575 39.2207 49.8035 39.2207 49.1256C39.2207 48.4477 38.6657 47.8936 37.9865 47.8936H10.7299C10.0508 47.8936 9.49572 48.4477 9.49572 49.1256Z" fill="#BF902D"/>
<path d="M46.4756 6.08437C46.5997 6.08437 46.7172 6.10393 46.8282 6.13652C47.3572 6.27341 47.749 6.75577 47.749 7.32939V22.7911L61.09 9.47396C61.5405 9.02418 62.1217 8.80908 62.7094 8.80908C63.2906 8.80908 63.8783 9.02418 64.3289 9.47396L68.9326 14.0694C69.1481 14.2846 69.2003 14.6496 69.0306 14.9364C68.4951 15.7838 68.2992 16.7876 68.4102 17.7524C68.5278 18.6845 68.9457 19.6036 69.677 20.3337C70.3954 21.0637 71.3096 21.4809 72.263 21.5982C73.2164 21.7156 74.1959 21.5135 75.0513 21.0181C75.3321 20.8356 75.7174 20.8486 75.9655 21.1028L80.5693 25.6983C81.0198 26.1481 81.2353 26.7282 81.2353 27.3149C81.2353 27.895 81.0198 28.4817 80.5693 28.9315L47.749 61.6931V63.968C47.749 64.6459 47.1939 65.2 46.5148 65.2H4.53931C3.56633 65.2 2.68477 64.8024 2.04482 64.1636C1.39834 63.5182 1 62.6317 1 61.6605V4.34395C1 4.14188 1.04571 3.95285 1.13713 3.78337C1.31344 3.13804 1.65301 2.56442 2.11012 2.10813C2.79578 1.4237 3.74264 1 4.78093 1H30.4272C31.1064 1 31.6614 1.55407 31.6614 2.23198C31.6614 2.9099 31.1064 3.46397 30.4272 3.46397H4.78093C4.42177 3.46397 4.09527 3.61389 3.85365 3.84855C3.61857 4.08973 3.46838 4.41566 3.46838 4.77417C3.46838 5.13268 3.61857 5.4586 3.85365 5.69979C4.09527 5.94097 4.42177 6.08437 4.78093 6.08437H46.4756ZM47.749 24.8249V32.0342C47.9253 32.0668 48.1277 32.1125 48.3628 32.1711L49.499 31.0369L50.5439 32.0799L50.0606 32.5622L51.3079 32.8556L52.5812 31.5845L53.6326 32.6339L53.0122 33.2532L54.5991 33.6182L57.2699 30.9522C57.6421 30.5806 58.3604 30.6784 58.8567 31.1738C59.353 31.6692 59.4574 32.3862 59.0787 32.7578L56.4079 35.4238L56.7736 36.9948L57.3874 36.382L58.4387 37.4315L57.1719 38.6961L57.4592 39.9411L57.9359 39.4652L58.9873 40.5147L57.8576 41.6424L57.8641 41.6685C58.4061 44.0412 57.9229 43.2981 56.1206 45.0972L53.5085 38.331L50.9226 40.9123C51.0989 42.1639 51.1773 43.1677 50.1912 44.152L49.0876 43.0765C49.0028 42.5485 48.9636 42.1704 48.9179 41.8966C48.7546 41.8184 48.5914 41.7076 48.4477 41.5707C48.3236 41.4468 48.2191 41.3034 48.1473 41.16C48.0363 41.147 47.8992 41.134 47.749 41.1144V52.2023L51.5038 55.9504L72.8311 34.6546L55.3696 17.2178L47.749 24.8249ZM47.749 34.9806V38.9177C48.1734 38.9047 48.6175 38.9829 49.1203 39.0807L51.6997 36.5059L47.749 34.9806ZM47.749 54.1708V59.6919L50.5177 56.9281L47.749 54.1708ZM73.8237 33.6704L56.3556 16.2336L62.1087 10.4908C62.2784 10.3214 62.4939 10.2431 62.729 10.2431C62.9445 10.2431 63.1796 10.3279 63.3494 10.4908L67.5678 14.7017C67.0846 15.7186 66.9018 16.8333 67.0324 17.9349C67.5156 21.9502 71.7863 24.1991 75.3713 22.4978L79.5897 26.7087C79.7595 26.8782 79.8379 27.0933 79.8379 27.3279C79.8379 27.543 79.753 27.7777 79.5897 27.9472L79.5701 27.9276L73.8237 33.6704ZM45.2806 8.54834H4.78093C4.31729 8.54834 3.87324 8.4636 3.46838 8.31368V61.6605C3.46838 61.9538 3.59245 62.2211 3.78182 62.4166C3.97773 62.6122 4.24546 62.7295 4.53931 62.7295H45.2806V8.54834Z" stroke="#BF902D" stroke-width="2"/>
<path d="M14.5174 55.5788C14.5174 56.2567 15.0724 56.8108 15.7516 56.8108H32.9584C33.6375 56.8108 34.1926 56.2567 34.1926 55.5788C34.1926 54.9009 33.6375 54.3468 32.9584 54.3468H15.7516C15.0724 54.3468 14.5174 54.9009 14.5174 55.5788Z" stroke="#BF902D" stroke-width="2"/>
<path d="M9.49572 49.1256C9.49572 49.8035 10.0508 50.3575 10.7299 50.3575H37.9865C38.6657 50.3575 39.2207 49.8035 39.2207 49.1256C39.2207 48.4477 38.6657 47.8936 37.9865 47.8936H10.7299C10.0508 47.8936 9.49572 48.4477 9.49572 49.1256Z" stroke="#BF902D" stroke-width="2"/>
<path d="M24.2962 41.1211C30.9422 41.1211 36.3064 35.7308 36.3064 29.0588C36.3064 22.4129 30.9422 17.0486 24.2962 17.0486M24.2962 41.1211C17.6242 41.1211 12.2339 35.7308 12.2339 29.0588C12.2339 22.4129 17.6242 17.0486 24.2962 17.0486M24.2962 41.1211V17.0486M34.7138 23.0667H13.8344M34.7808 34.9566H13.7674M12.2989 29.0849H36.2414" stroke="#BF902D" stroke-width="2" stroke-linecap="round" stroke-linejoin="round"/>
<path d="M24.2831 41.1211C27.6064 41.1211 30.2882 35.7308 30.2882 29.0588C30.2882 22.4129 27.6064 17.0486 24.2831 17.0486C20.9468 17.0486 18.252 22.4129 18.252 29.0588C18.252 35.7308 20.9468 41.1211 24.2831 41.1211Z" stroke="#BF902D" stroke-width="2" stroke-linecap="round" stroke-linejoin="round"/>
</svg>
