<svg width="28" height="30" viewBox="0 0 28 30" fill="none" xmlns="http://www.w3.org/2000/svg">
<path d="M26.4375 11.541C26.6153 11.5411 26.7915 11.5061 26.9558 11.4381C27.1201 11.37 27.2694 11.2703 27.3951 11.1445C27.5209 11.0188 27.6206 10.8695 27.6887 10.7051C27.7567 10.5408 27.7917 10.3647 27.7917 10.1869V6.12438C27.7918 5.84024 27.7024 5.56328 27.5363 5.33279C27.3701 5.1023 27.1356 4.92999 26.866 4.8403L14.6785 0.777801C14.4003 0.685232 14.0997 0.685232 13.8215 0.777801L1.63402 4.8403C1.36441 4.92999 1.12989 5.1023 0.963732 5.33279C0.797572 5.56328 0.708212 5.84024 0.708328 6.12438V10.1869C0.708282 10.3647 0.743277 10.5408 0.811314 10.7051C0.879351 10.8695 0.979096 11.0188 1.10485 11.1445C1.23061 11.2703 1.37991 11.37 1.54422 11.4381C1.70854 11.5061 1.88465 11.5411 2.0625 11.541H3.41666V21.2697C2.62683 21.548 1.94247 22.0638 1.45754 22.7465C0.97262 23.4292 0.710905 24.2453 0.708328 25.0827V27.791C0.708282 27.9689 0.743277 28.145 0.811314 28.3093C0.879351 28.4736 0.979096 28.6229 1.10485 28.7487C1.23061 28.8744 1.37991 28.9742 1.54422 29.0422C1.70854 29.1103 1.88465 29.1453 2.0625 29.1452H26.4375C26.6153 29.1453 26.7915 29.1103 26.9558 29.0422C27.1201 28.9742 27.2694 28.8744 27.3951 28.7487C27.5209 28.6229 27.6206 28.4736 27.6887 28.3093C27.7567 28.145 27.7917 27.9689 27.7917 27.791V25.0827C27.7891 24.2453 27.5274 23.4292 27.0424 22.7465C26.5575 22.0638 25.8732 21.548 25.0833 21.2697V11.541H26.4375ZM25.0833 26.4369H3.41666V25.0827C3.41702 24.7237 3.55981 24.3794 3.81368 24.1256C4.06756 23.8717 4.41179 23.7289 4.77083 23.7285H23.7292C24.0882 23.7289 24.4324 23.8717 24.6863 24.1256C24.9402 24.3794 25.083 24.7237 25.0833 25.0827V26.4369ZM6.12499 21.0202V11.541H8.83333V21.0202H6.12499ZM11.5417 21.0202V11.541H16.9583V21.0202H11.5417ZM19.6667 21.0202V11.541H22.375V21.0202H19.6667ZM3.41666 8.83271V7.10032L14.25 3.48876L25.0833 7.10032V8.83271H3.41666Z" fill="#C0902C"/>
</svg>
