<svg width="23" height="23" viewBox="0 0 23 23" fill="none" xmlns="http://www.w3.org/2000/svg">
<path d="M21.9997 21.9138H21.2075C20.3672 21.9138 19.5612 21.58 18.967 20.9857C18.3728 20.3915 18.039 19.5856 18.039 18.7452C18.039 19.5856 17.7052 20.3915 17.1109 20.9857C16.5167 21.58 15.7108 21.9138 14.8705 21.9138C14.0301 21.9138 13.2242 21.58 12.63 20.9857C12.0357 20.3915 11.7019 19.5856 11.7019 18.7452C11.7019 19.5856 11.3681 20.3915 10.7739 20.9857C10.1797 21.58 9.37373 21.9138 8.53338 21.9138C7.69303 21.9138 6.8871 21.58 6.29289 20.9857C5.69867 20.3915 5.36484 19.5856 5.36484 18.7452C5.36484 19.5856 5.03102 20.3915 4.4368 20.9857C3.84259 21.58 3.03666 21.9138 2.19631 21.9138H1.40417M16.4547 15.5767C15.6388 14.5847 14.6133 13.7857 13.4518 13.2372C12.2904 12.6887 11.0219 12.4042 9.73742 12.4042C8.45297 12.4042 7.18446 12.6887 6.02303 13.2372C4.86159 13.7857 3.83607 14.5847 3.02013 15.5767" stroke="white" stroke-width="1.2" stroke-linecap="round" stroke-linejoin="round"/>
<path d="M10.9097 12.4873C11.0047 8.90687 12.0979 5.64328 14.4743 4.47092M9.73732 1.46081C10.7643 1.25859 11.8297 1.45805 12.714 2.01809C13.5982 2.57813 14.234 3.45605 14.4901 4.47092" stroke="white" stroke-width="1.2" stroke-linecap="round" stroke-linejoin="round"/>
<path d="M20.2727 5.05753C19.5435 4.27019 18.552 3.77615 17.4843 3.66822C16.4166 3.56028 15.3463 3.84587 14.4743 4.47135" stroke="white" stroke-width="1.2" stroke-linecap="round" stroke-linejoin="round"/>
<path d="M8.66032 6.16597C9.28112 5.25138 10.2013 4.58177 11.2625 4.27237C12.3237 3.96298 13.4595 4.03314 14.4746 4.4708C15.4927 4.71981 16.3743 5.35478 16.933 6.24162C17.4917 7.12846 17.6838 8.19773 17.4689 9.2236" stroke="white" stroke-width="1.2" stroke-linecap="round" stroke-linejoin="round"/>
</svg>
