<svg width="26" height="28" viewBox="0 0 26 28" fill="none" xmlns="http://www.w3.org/2000/svg">
<path fill-rule="evenodd" clip-rule="evenodd" d="M18.0923 4.88372C18.0923 5.41767 18.5317 5.86047 19.0615 5.86047C19.5914 5.86047 20.0308 5.41767 20.0308 4.88372V4.18828C20.9108 4.368 21.5557 4.66233 22.0338 5.14419C22.7214 5.83702 23.0238 6.87367 23.1582 8.46512H2.04185C2.17625 6.87367 2.47865 5.83702 3.16615 5.14419C3.64431 4.66233 4.28917 4.368 5.16923 4.18828V4.88372C5.16923 5.41767 5.60862 5.86047 6.13846 5.86047C6.66831 5.86047 7.10769 5.41767 7.10769 4.88372V3.96949C8.23975 3.90828 9.61994 3.90828 11.3077 3.90828H13.8923C15.5801 3.90828 16.9602 3.90828 18.0923 3.96949V4.88372ZM1.95526 10.4186H23.2447C23.2615 11.2768 23.2615 12.2471 23.2615 13.3488V16.6047C23.2615 21.2409 23.2615 23.5721 22.0338 24.8093C20.8062 26.0465 18.4929 26.0465 13.8923 26.0465H11.3077C6.70708 26.0465 4.39385 26.0465 3.16615 24.8093C1.93846 23.5721 1.93846 21.2409 1.93846 16.6047V13.3488C1.93846 12.2471 1.93846 11.2768 1.95526 10.4186ZM20.0308 2.20093V0.976744C20.0308 0.442791 19.5914 0 19.0615 0C18.5317 0 18.0923 0.442791 18.0923 0.976744V2.0134C16.9163 1.95349 15.5348 1.95349 13.8923 1.95349H11.3077C9.66517 1.95349 8.28369 1.95349 7.10769 2.0134V0.976744C7.10769 0.442791 6.66831 0 6.13846 0C5.60862 0 5.16923 0.442791 5.16923 0.976744V2.20093C3.72443 2.43274 2.66862 2.88465 1.79631 3.76372C2.22524e-07 5.57395 0 8.16558 0 13.3488V16.6047C0 21.7879 2.22524e-07 24.3795 1.79631 26.1898C3.59262 28 6.16431 28 11.3077 28H13.8923C19.0357 28 21.6074 28 23.4037 26.1898C25.2 24.3795 25.2 21.7879 25.2 16.6047V13.3488C25.2 8.16558 25.2 5.57395 23.4037 3.76372C22.5314 2.88465 21.4756 2.43274 20.0308 2.20093Z" fill="#828181"/>
<path d="M13.0668 18.5174L14.6908 20.1414C14.7935 20.244 14.9241 20.2954 15.0828 20.2954C15.2415 20.2954 15.3721 20.244 15.4748 20.1414C15.5775 20.0387 15.6288 19.908 15.6288 19.7494C15.6288 19.5907 15.5775 19.46 15.4748 19.3574L13.8508 17.7334L15.4748 16.1094C15.5775 16.0067 15.6288 15.876 15.6288 15.7174C15.6288 15.5587 15.5775 15.428 15.4748 15.3254C15.3721 15.2227 15.2415 15.1714 15.0828 15.1714C14.9241 15.1714 14.7935 15.2227 14.6908 15.3254L13.0668 16.9494L11.4428 15.3254C11.3401 15.2227 11.2095 15.1714 11.0508 15.1714C10.8921 15.1714 10.7615 15.2227 10.6588 15.3254C10.5561 15.428 10.5048 15.5587 10.5048 15.7174C10.5048 15.876 10.5561 16.0067 10.6588 16.1094L12.2828 17.7334L10.6588 19.3574C10.5561 19.46 10.5048 19.5907 10.5048 19.7494C10.5048 19.908 10.5561 20.0387 10.6588 20.1414C10.7615 20.244 10.8921 20.2954 11.0508 20.2954C11.2095 20.2954 11.3401 20.244 11.4428 20.1414L13.0668 18.5174ZM13.0668 23.3334C12.2921 23.3334 11.5641 23.1863 10.8828 22.8921C10.2015 22.5979 9.6088 22.199 9.1048 21.6954C8.6008 21.1917 8.20189 20.5991 7.90808 19.9174C7.61426 19.2357 7.46717 18.5077 7.4668 17.7334C7.46642 16.9591 7.61352 16.2311 7.90808 15.5494C8.20264 14.8677 8.60154 14.275 9.1048 13.7714C9.60805 13.2677 10.2007 12.8688 10.8828 12.5746C11.5649 12.2805 12.2929 12.1334 13.0668 12.1334C13.8407 12.1334 14.5687 12.2805 15.2508 12.5746C15.9329 12.8688 16.5255 13.2677 17.0288 13.7714C17.532 14.275 17.9311 14.8677 18.2261 15.5494C18.521 16.2311 18.6679 16.9591 18.6668 17.7334C18.6657 18.5077 18.5186 19.2357 18.2255 19.9174C17.9324 20.5991 17.5335 21.1917 17.0288 21.6954C16.524 22.199 15.9314 22.5981 15.2508 22.8926C14.5702 23.1872 13.8422 23.3341 13.0668 23.3334ZM13.0668 22.2134C14.3175 22.2134 15.3768 21.7794 16.2448 20.9114C17.1128 20.0434 17.5468 18.984 17.5468 17.7334C17.5468 16.4827 17.1128 15.4234 16.2448 14.5554C15.3768 13.6874 14.3175 13.2534 13.0668 13.2534C11.8161 13.2534 10.7568 13.6874 9.8888 14.5554C9.0208 15.4234 8.5868 16.4827 8.5868 17.7334C8.5868 18.984 9.0208 20.0434 9.8888 20.9114C10.7568 21.7794 11.8161 22.2134 13.0668 22.2134Z" fill="#BF902D"/>
</svg>
