<svg width="12" height="16" viewBox="0 0 12 16" fill="none" xmlns="http://www.w3.org/2000/svg">
<path d="M1.88947 0.351052L2.75106 0.0758487C3.55745 -0.181754 4.41983 0.235051 4.76542 1.04946L5.45341 2.67188C5.75341 3.37829 5.58701 4.2095 5.04222 4.7263L3.52785 6.16472C3.62118 7.02553 3.91024 7.87274 4.39503 8.70635C4.85604 9.51265 5.47376 10.2185 6.2118 10.7824L8.03257 10.1744C8.72216 9.94477 9.47334 10.2096 9.89654 10.8312L10.8821 12.2792C11.3749 13.0024 11.2861 13.9992 10.6757 14.612L10.0213 15.2688C9.37015 15.9224 8.44056 16.16 7.57978 15.8912C5.54888 15.2576 3.68144 13.3768 1.97747 10.2488C0.271369 7.1154 -0.330754 4.45723 0.171104 2.27427C0.382301 1.35586 1.03669 0.623855 1.89107 0.351052" fill="white"/>
</svg>
