<svg width="24" height="23" viewBox="0 0 24 23" fill="none" xmlns="http://www.w3.org/2000/svg">
<path fill-rule="evenodd" clip-rule="evenodd" d="M10.5729 2.53125C5.73468 2.53125 1.8125 6.45343 1.8125 11.2917C1.8125 13.4222 2.57193 15.3731 3.83582 16.8917C4.03339 17.1291 4.09646 17.4508 4.00314 17.7453L3.11085 20.5604L6.74012 19.4171C6.93872 19.3545 7.15281 19.3622 7.34638 19.439C8.34371 19.8343 9.43177 20.0521 10.5729 20.0521H12.9896C17.8279 20.0521 21.75 16.13 21.75 11.2917C21.75 6.45343 17.8279 2.53125 12.9896 2.53125H10.5729ZM0 11.2917C0 5.45241 4.73366 0.71875 10.5729 0.71875H12.9896C18.8289 0.71875 23.5625 5.45241 23.5625 11.2917C23.5625 17.1309 18.8289 21.8646 12.9896 21.8646H10.5729C9.31501 21.8646 8.10666 21.6445 6.98547 21.2401L3.10114 22.4638C1.93472 22.8312 0.837979 21.7326 1.20746 20.5668L1.79812 20.7541L1.20746 20.5668L2.12987 17.6567C0.793223 15.8861 0 13.6805 0 11.2917Z" fill="#838282"/>
</svg>
