<svg width="26" height="28" viewBox="0 0 26 28" fill="none" xmlns="http://www.w3.org/2000/svg">
<path fill-rule="evenodd" clip-rule="evenodd" d="M18.0923 4.88372C18.0923 5.41767 18.5317 5.86047 19.0615 5.86047C19.5914 5.86047 20.0308 5.41767 20.0308 4.88372V4.18828C20.9108 4.368 21.5557 4.66233 22.0338 5.14419C22.7214 5.83702 23.0238 6.87367 23.1582 8.46512H2.04185C2.17625 6.87367 2.47865 5.83702 3.16615 5.14419C3.64431 4.66233 4.28917 4.368 5.16923 4.18828V4.88372C5.16923 5.41767 5.60862 5.86047 6.13846 5.86047C6.66831 5.86047 7.10769 5.41767 7.10769 4.88372V3.96949C8.23975 3.90828 9.61994 3.90828 11.3077 3.90828H13.8923C15.5801 3.90828 16.9602 3.90828 18.0923 3.96949V4.88372ZM1.95526 10.4186H23.2447C23.2615 11.2768 23.2615 12.2471 23.2615 13.3488V16.6047C23.2615 21.2409 23.2615 23.5721 22.0338 24.8093C20.8062 26.0465 18.4929 26.0465 13.8923 26.0465H11.3077C6.70708 26.0465 4.39385 26.0465 3.16615 24.8093C1.93846 23.5721 1.93846 21.2409 1.93846 16.6047V13.3488C1.93846 12.2471 1.93846 11.2768 1.95526 10.4186ZM20.0308 2.20093V0.976744C20.0308 0.442791 19.5914 0 19.0615 0C18.5317 0 18.0923 0.442791 18.0923 0.976744V2.0134C16.9163 1.95349 15.5348 1.95349 13.8923 1.95349H11.3077C9.66517 1.95349 8.28369 1.95349 7.10769 2.0134V0.976744C7.10769 0.442791 6.66831 0 6.13846 0C5.60862 0 5.16923 0.442791 5.16923 0.976744V2.20093C3.72443 2.43274 2.66862 2.88465 1.79631 3.76372C2.22524e-07 5.57395 0 8.16558 0 13.3488V16.6047C0 21.7879 2.22524e-07 24.3795 1.79631 26.1898C3.59262 28 6.16431 28 11.3077 28H13.8923C19.0357 28 21.6074 28 23.4037 26.1898C25.2 24.3795 25.2 21.7879 25.2 16.6047V13.3488C25.2 8.16558 25.2 5.57395 23.4037 3.76372C22.5314 2.88465 21.4756 2.43274 20.0308 2.20093Z" fill="#828181"/>
<path d="M11.0251 22.4682H10.9334C10.5457 22.4291 10.2226 22.1687 10.0934 21.804C9.65011 20.4626 8.33971 19.9065 8.14199 19.8232L8.11743 19.8115C7.61343 19.6291 7.34205 19.0822 7.52297 18.5743C7.56239 18.4534 7.62518 18.3416 7.70771 18.2452C7.79024 18.1489 7.89087 18.0701 8.00381 18.0132C8.11675 17.9562 8.23975 17.9224 8.36572 17.9137C8.49168 17.9049 8.61812 17.9214 8.73774 17.9622C8.81528 17.9882 10.0688 18.418 11.051 19.5901C12.2141 17.845 14.4497 15.0319 17.1636 14.0552C17.407 13.9693 17.6742 13.9841 17.9067 14.0964C18.1393 14.2087 18.3182 14.4093 18.4042 14.6543C18.5851 15.1622 18.3137 15.7222 17.8097 15.9045C14.6824 17.0219 12.0977 21.5735 11.891 21.9382L11.8781 21.9603C11.7101 22.2729 11.3741 22.4682 11.0251 22.4682Z" fill="#BF902D"/>
</svg>
