<svg width="27" height="27" viewBox="0 0 27 27" fill="none" xmlns="http://www.w3.org/2000/svg">
<g clip-path="url(#clip0_3304_1243)">
<path d="M4.25665 19.5664H3.75427C3.34081 19.5664 3.00293 19.8999 3.00293 20.3177C3.00293 20.7312 3.33641 21.0691 3.75427 21.0691H4.26113C4.67459 21.0691 5.01247 20.7357 5.01247 20.3177C5.01247 19.8998 4.67459 19.5664 4.25665 19.5664Z" fill="white"/>
<path d="M8.28066 19.5664H7.7738C7.36034 19.5664 7.02246 19.8999 7.02246 20.3177C7.02246 20.7312 7.35594 21.0691 7.7738 21.0691H8.28066C8.69412 21.0691 9.032 20.7357 9.032 20.3177C9.032 19.8998 8.69412 19.5664 8.28066 19.5664Z" fill="white"/>
<path d="M12.2992 19.5664H11.7924C11.3789 19.5664 11.041 19.8999 11.041 20.3177C11.041 20.7312 11.3745 21.0691 11.7924 21.0691H12.2992C12.7127 21.0691 13.0506 20.7357 13.0506 20.3177C13.0506 19.8998 12.7127 19.5664 12.2992 19.5664Z" fill="white"/>
<path d="M4.25665 16.3209H3.75427C3.34081 16.3209 3.00293 16.6544 3.00293 17.0723C3.00293 17.4857 3.33641 17.8236 3.75427 17.8236H4.26113C4.67459 17.8236 5.01247 17.4901 5.01247 17.0723C5.01247 16.6544 4.67459 16.3209 4.25665 16.3209Z" fill="white"/>
<path d="M8.28066 16.3209H7.7738C7.36034 16.3209 7.02246 16.6544 7.02246 17.0723C7.02246 17.4857 7.35594 17.8236 7.7738 17.8236H8.28066C8.69412 17.8236 9.032 17.4901 9.032 17.0723C9.032 16.6544 8.69412 16.3209 8.28066 16.3209Z" fill="white"/>
<path d="M12.2992 16.3209H11.7924C11.3789 16.3209 11.041 16.6544 11.041 17.0723C11.041 17.4857 11.3745 17.8236 11.7924 17.8236H12.2992C12.7127 17.8236 13.0506 17.4901 13.0506 17.0723C13.0506 16.6544 12.7127 16.3209 12.2992 16.3209Z" fill="white"/>
<path d="M4.25665 13.071H3.75427C3.34081 13.071 3.00293 13.4044 3.00293 13.8223C3.00293 14.2358 3.33641 14.5737 3.75427 14.5737H4.26113C4.67459 14.5737 5.01247 14.2403 5.01247 13.8223C5.01247 13.4044 4.67459 13.071 4.25665 13.071Z" fill="white"/>
<path d="M8.28066 13.071H7.7738C7.36034 13.071 7.02246 13.4044 7.02246 13.8223C7.02246 14.2358 7.35594 14.5737 7.7738 14.5737H8.28066C8.69412 14.5737 9.032 14.2403 9.032 13.8223C9.032 13.4044 8.69412 13.071 8.28066 13.071Z" fill="white"/>
<path d="M12.2992 13.071H11.7924C11.3789 13.071 11.041 13.4044 11.041 13.8223C11.041 14.2358 11.3745 14.5737 11.7924 14.5737H12.2992C12.7127 14.5737 13.0506 14.2403 13.0506 13.8223C13.0506 13.4044 12.7127 13.071 12.2992 13.071Z" fill="white"/>
<path d="M16.3236 13.0665H15.8168C15.4033 13.0665 15.0654 13.3999 15.0654 13.8179C15.0699 14.2358 15.4033 14.5692 15.8168 14.5692H16.3236C16.7371 14.5692 17.075 14.2358 17.075 13.8179C17.075 13.3999 16.7415 13.0665 16.3236 13.0665Z" fill="white"/>
<path d="M4.25665 9.8255H3.75427C3.34081 9.8255 3.00293 10.159 3.00293 10.5768C3.00293 10.9903 3.33641 11.3282 3.7454 11.3282H4.25225C4.66571 11.3282 5.00359 10.9947 5.00359 10.5768C5.00359 10.1589 4.67459 9.8255 4.25665 9.8255Z" fill="white"/>
<path d="M8.28066 9.8255H7.7738C7.36034 9.8255 7.02246 10.159 7.02246 10.5768C7.02246 10.9903 7.35594 11.3282 7.7738 11.3282H8.28066C8.69412 11.3282 9.032 10.9947 9.032 10.5768C9.032 10.1589 8.69412 9.8255 8.28066 9.8255Z" fill="white"/>
<path d="M12.2992 9.8255H11.7924C11.3789 9.8255 11.041 10.159 11.041 10.5768C11.041 10.9903 11.3745 11.3282 11.7924 11.3282H12.2992C12.7127 11.3282 13.0506 10.9947 13.0506 10.5768C13.0462 10.1589 12.7127 9.8255 12.2992 9.8255Z" fill="white"/>
<path d="M20.3422 9.82098H19.8353C19.4219 9.82098 19.084 10.1545 19.084 10.5723C19.084 10.9903 19.4219 11.3237 19.8353 11.3237H20.3422C20.7556 11.3237 21.0935 10.9902 21.0935 10.5723C21.0935 10.1589 20.7601 9.82098 20.3422 9.82098Z" fill="white"/>
<path d="M16.3236 9.82098H15.8168C15.4033 9.82098 15.0654 10.1545 15.0654 10.5723C15.0699 10.9903 15.4033 11.3237 15.8168 11.3237H16.3236C16.7371 11.3237 17.075 10.9902 17.075 10.5723C17.075 10.1589 16.7415 9.82098 16.3236 9.82098Z" fill="white"/>
<path d="M24.0899 15.6318V4.09912C24.0899 2.85874 23.0807 1.8495 21.8403 1.8495H19.5551V0.751341C19.5551 0.33788 19.2216 0 18.8037 0C18.3902 0 18.0524 0.33341 18.0524 0.751341V1.8539H6.0351V0.755811C6.0351 0.34235 5.70162 0.00447022 5.28376 0.00447022C4.8659 0.00447022 4.53235 0.33788 4.53235 0.755811V1.85397H2.25158C1.01119 1.85397 0.00195312 2.86321 0.00195312 4.10359V21.8161C0.00195312 23.0564 1.01119 24.0657 2.25158 24.0657H15.6116C16.6964 25.8263 18.6348 27 20.8444 27C24.2366 27 26.9976 24.2435 26.9976 20.8468C26.9976 18.6461 25.8327 16.7166 24.0899 15.6318ZM1.50023 4.09912C1.50023 3.68566 1.83364 3.34778 2.25158 3.34778H4.53675V4.57042C4.53675 4.98388 4.87023 5.32176 5.28809 5.32176C5.70156 5.32176 6.03944 4.98835 6.03944 4.57042V3.34778H18.0656V4.57042C18.0656 4.98388 18.3991 5.32176 18.817 5.32176C19.2304 5.32176 19.5683 4.98835 19.5683 4.57042V3.34778H21.8535C22.267 3.34778 22.6048 3.68126 22.6048 4.09912V6.82004H1.50023V4.09912ZM14.9447 22.5719L2.25605 22.5674C1.84258 22.5674 1.5047 22.234 1.5047 21.8161V8.3272H22.5961V14.9561C22.0448 14.7915 21.4535 14.7026 20.8489 14.7026C17.4567 14.7026 14.6957 17.4591 14.6957 20.8558C14.6957 21.4515 14.7846 22.0295 14.9447 22.5719ZM23.1423 21.8571C21.2137 18.8258 20.5709 23.7796 20.5709 21.2143C20.5709 18.649 18.2791 18.9429 20.8444 18.9429C23.4097 18.9429 16.7137 18.0061 16.7137 20.5714C16.7137 23.1367 25.7076 21.8571 23.1423 21.8571Z" fill="white"/>
<path d="M23.3742 18.9885C23.0763 18.695 22.5962 18.695 22.3072 18.9885L20.182 21.1136L19.3862 20.3178C19.0928 20.0243 18.6215 20.0243 18.3236 20.3178C18.0302 20.6112 18.0302 21.0825 18.3236 21.3804L19.6529 22.7097C20.0353 23.0876 20.5732 22.8475 20.7155 22.7097L23.3742 20.051C23.6676 19.7576 23.6676 19.2863 23.3742 18.9885Z" fill="#337AB7"/>
</g>
<defs>
<clipPath id="clip0_3304_1243">
<rect width="27" height="27" fill="white"/>
</clipPath>
</defs>
</svg>
