<svg width="43" height="55" viewBox="0 0 43 55" fill="none" xmlns="http://www.w3.org/2000/svg">
<mask id="path-1-outside-1_3100_1443" maskUnits="userSpaceOnUse" x="0" y="8.01855" width="43" height="47" fill="black">
<rect fill="white" y="8.01855" width="43" height="47"/>
<path d="M27.3416 25.821L25.9288 24.4596C25.8035 24.3425 25.6379 24.2781 25.4664 24.2798H25.4022V22.2891C26.9365 21.5613 28.2333 20.4139 29.1424 18.9797C30.0516 17.5454 30.536 15.8831 30.5395 14.185C31.2208 14.185 31.8741 13.9143 32.3559 13.4326C32.8376 12.9509 33.1082 12.2975 33.1082 11.6163C33.1124 11.244 33.0356 10.8752 32.8832 10.5354C32.7307 10.1957 32.5062 9.89322 32.2252 9.64889C31.9442 9.40455 31.6135 9.22423 31.2559 9.12041C30.8983 9.01659 30.5224 8.99176 30.1542 9.04764C30.0772 9.04764 13.0213 9.04764 12.9442 9.04764C12.5761 8.99176 12.2002 9.01659 11.8426 9.12041C11.485 9.22423 11.1543 9.40455 10.8733 9.64889C10.5923 9.89322 10.3678 10.1957 10.2153 10.5354C10.0629 10.8752 9.98608 11.244 9.99029 11.6163C9.99029 12.2975 10.2609 12.9509 10.7426 13.4326C11.2244 13.9143 11.8777 14.185 12.5589 14.185C12.5625 15.8831 13.0469 17.5454 13.956 18.9797C14.8652 20.4139 16.162 21.5613 17.6963 22.2891V24.2412C17.5259 24.2455 17.3624 24.3091 17.2339 24.421L15.8211 25.8338C11.7971 26.1467 8.03824 27.9628 5.29209 30.9207C2.54593 33.8786 1.01366 37.7618 1 41.798V50.7883C1 50.9586 1.06766 51.1219 1.18808 51.2424C1.30851 51.3628 1.47185 51.4304 1.64216 51.4304H8.77018C8.91822 52.1557 9.31229 52.8075 9.88568 53.2756C10.4591 53.7437 11.1766 53.9993 11.9168 53.9991H31.1817C31.9329 54.0143 32.6655 53.7655 33.2522 53.2962C33.8389 52.8268 34.2424 52.1666 34.3925 51.4304H41.4563C41.6266 51.4304 41.79 51.3628 41.9104 51.2424C42.0308 51.1219 42.0985 50.9586 42.0985 50.7883V41.798C42.0894 37.7698 40.5675 33.8921 37.8344 30.933C35.1012 27.9739 31.3563 26.1494 27.3416 25.821ZM30.5395 10.332C30.8802 10.332 31.2068 10.4673 31.4477 10.7081C31.6886 10.949 31.8239 11.2757 31.8239 11.6163C31.8239 11.9569 31.6886 12.2836 31.4477 12.5245C31.2068 12.7653 30.8802 12.9006 30.5395 12.9006V10.332ZM12.5589 12.9006C12.2183 12.9006 11.8916 12.7653 11.6508 12.5245C11.4099 12.2836 11.2746 11.9569 11.2746 11.6163C11.2746 11.2757 11.4099 10.949 11.6508 10.7081C11.8916 10.4673 12.2183 10.332 12.5589 10.332V12.9006ZM25.4921 25.7439L26.4939 26.7328L24.1179 30.7142L22.4483 29.0189L25.4921 25.7439ZM13.8433 14.185V10.332H29.2552V14.185C29.2552 16.2287 28.4433 18.1887 26.9982 19.6339C25.553 21.079 23.593 21.8909 21.5492 21.8909C19.5055 21.8909 17.5455 21.079 16.1003 19.6339C14.6552 18.1887 13.8433 16.2287 13.8433 14.185ZM21.5492 23.1752C22.4186 23.1713 23.2832 23.0459 24.1179 22.8028V25.3714L21.5492 28.0942L18.9806 25.3714V22.8028C19.8153 23.0459 20.6799 23.1713 21.5492 23.1752ZM17.6064 25.7439L20.6502 28.9676L18.9806 30.7142L16.6303 26.7842L17.6064 25.7439ZM8.70597 50.1461H2.28433V47.5775H8.70597V50.1461ZM8.70597 41.798V46.2931H2.28433V41.798C2.29392 38.1844 3.62679 34.6995 6.03105 32.0018C8.43532 29.3041 11.7444 27.5805 15.3331 27.1567L18.2742 32.0885C18.3246 32.1728 18.3936 32.2444 18.476 32.2978C18.5584 32.3513 18.6519 32.3851 18.7494 32.3967H18.8265C18.994 32.3977 19.1553 32.3332 19.276 32.2169L20.9071 30.5858V38.5872H11.9168C11.0652 38.5872 10.2485 38.9255 9.64639 39.5276C9.04425 40.1297 8.70597 40.9464 8.70597 41.798ZM33.1082 50.7883C33.1082 51.2992 32.9052 51.7892 32.5439 52.1505C32.1826 52.5118 31.6926 52.7148 31.1817 52.7148H11.9168C11.4058 52.7148 10.9158 52.5118 10.5545 52.1505C10.1933 51.7892 9.99029 51.2992 9.99029 50.7883V41.798C9.99029 41.2871 10.1933 40.797 10.5545 40.4358C10.9158 40.0745 11.4058 39.8715 11.9168 39.8715H31.1817C31.6926 39.8715 32.1826 40.0745 32.5439 40.4358C32.9052 40.797 33.1082 41.2871 33.1082 41.798V50.7883ZM40.8142 50.1461H34.3925V47.5775H40.8142V50.1461ZM40.8142 46.2931H34.3925V41.798C34.3925 40.9464 34.0542 40.1297 33.4521 39.5276C32.8499 38.9255 32.0333 38.5872 31.1817 38.5872H22.1914V30.5858L23.8225 32.1655C23.9431 32.2818 24.1045 32.3463 24.272 32.3453H24.3491C24.4466 32.3337 24.5401 32.2999 24.6225 32.2464C24.7049 32.193 24.7739 32.1214 24.8243 32.0371L27.7654 27.1053C31.3628 27.5302 34.679 29.2611 37.0845 31.9696C39.4899 34.6781 40.8171 38.1756 40.8142 41.798V46.2931Z"/>
</mask>
<path d="M27.3416 25.821L25.9288 24.4596C25.8035 24.3425 25.6379 24.2781 25.4664 24.2798H25.4022V22.2891C26.9365 21.5613 28.2333 20.4139 29.1424 18.9797C30.0516 17.5454 30.536 15.8831 30.5395 14.185C31.2208 14.185 31.8741 13.9143 32.3559 13.4326C32.8376 12.9509 33.1082 12.2975 33.1082 11.6163C33.1124 11.244 33.0356 10.8752 32.8832 10.5354C32.7307 10.1957 32.5062 9.89322 32.2252 9.64889C31.9442 9.40455 31.6135 9.22423 31.2559 9.12041C30.8983 9.01659 30.5224 8.99176 30.1542 9.04764C30.0772 9.04764 13.0213 9.04764 12.9442 9.04764C12.5761 8.99176 12.2002 9.01659 11.8426 9.12041C11.485 9.22423 11.1543 9.40455 10.8733 9.64889C10.5923 9.89322 10.3678 10.1957 10.2153 10.5354C10.0629 10.8752 9.98608 11.244 9.99029 11.6163C9.99029 12.2975 10.2609 12.9509 10.7426 13.4326C11.2244 13.9143 11.8777 14.185 12.5589 14.185C12.5625 15.8831 13.0469 17.5454 13.956 18.9797C14.8652 20.4139 16.162 21.5613 17.6963 22.2891V24.2412C17.5259 24.2455 17.3624 24.3091 17.2339 24.421L15.8211 25.8338C11.7971 26.1467 8.03824 27.9628 5.29209 30.9207C2.54593 33.8786 1.01366 37.7618 1 41.798V50.7883C1 50.9586 1.06766 51.1219 1.18808 51.2424C1.30851 51.3628 1.47185 51.4304 1.64216 51.4304H8.77018C8.91822 52.1557 9.31229 52.8075 9.88568 53.2756C10.4591 53.7437 11.1766 53.9993 11.9168 53.9991H31.1817C31.9329 54.0143 32.6655 53.7655 33.2522 53.2962C33.8389 52.8268 34.2424 52.1666 34.3925 51.4304H41.4563C41.6266 51.4304 41.79 51.3628 41.9104 51.2424C42.0308 51.1219 42.0985 50.9586 42.0985 50.7883V41.798C42.0894 37.7698 40.5675 33.8921 37.8344 30.933C35.1012 27.9739 31.3563 26.1494 27.3416 25.821ZM30.5395 10.332C30.8802 10.332 31.2068 10.4673 31.4477 10.7081C31.6886 10.949 31.8239 11.2757 31.8239 11.6163C31.8239 11.9569 31.6886 12.2836 31.4477 12.5245C31.2068 12.7653 30.8802 12.9006 30.5395 12.9006V10.332ZM12.5589 12.9006C12.2183 12.9006 11.8916 12.7653 11.6508 12.5245C11.4099 12.2836 11.2746 11.9569 11.2746 11.6163C11.2746 11.2757 11.4099 10.949 11.6508 10.7081C11.8916 10.4673 12.2183 10.332 12.5589 10.332V12.9006ZM25.4921 25.7439L26.4939 26.7328L24.1179 30.7142L22.4483 29.0189L25.4921 25.7439ZM13.8433 14.185V10.332H29.2552V14.185C29.2552 16.2287 28.4433 18.1887 26.9982 19.6339C25.553 21.079 23.593 21.8909 21.5492 21.8909C19.5055 21.8909 17.5455 21.079 16.1003 19.6339C14.6552 18.1887 13.8433 16.2287 13.8433 14.185ZM21.5492 23.1752C22.4186 23.1713 23.2832 23.0459 24.1179 22.8028V25.3714L21.5492 28.0942L18.9806 25.3714V22.8028C19.8153 23.0459 20.6799 23.1713 21.5492 23.1752ZM17.6064 25.7439L20.6502 28.9676L18.9806 30.7142L16.6303 26.7842L17.6064 25.7439ZM8.70597 50.1461H2.28433V47.5775H8.70597V50.1461ZM8.70597 41.798V46.2931H2.28433V41.798C2.29392 38.1844 3.62679 34.6995 6.03105 32.0018C8.43532 29.3041 11.7444 27.5805 15.3331 27.1567L18.2742 32.0885C18.3246 32.1728 18.3936 32.2444 18.476 32.2978C18.5584 32.3513 18.6519 32.3851 18.7494 32.3967H18.8265C18.994 32.3977 19.1553 32.3332 19.276 32.2169L20.9071 30.5858V38.5872H11.9168C11.0652 38.5872 10.2485 38.9255 9.64639 39.5276C9.04425 40.1297 8.70597 40.9464 8.70597 41.798ZM33.1082 50.7883C33.1082 51.2992 32.9052 51.7892 32.5439 52.1505C32.1826 52.5118 31.6926 52.7148 31.1817 52.7148H11.9168C11.4058 52.7148 10.9158 52.5118 10.5545 52.1505C10.1933 51.7892 9.99029 51.2992 9.99029 50.7883V41.798C9.99029 41.2871 10.1933 40.797 10.5545 40.4358C10.9158 40.0745 11.4058 39.8715 11.9168 39.8715H31.1817C31.6926 39.8715 32.1826 40.0745 32.5439 40.4358C32.9052 40.797 33.1082 41.2871 33.1082 41.798V50.7883ZM40.8142 50.1461H34.3925V47.5775H40.8142V50.1461ZM40.8142 46.2931H34.3925V41.798C34.3925 40.9464 34.0542 40.1297 33.4521 39.5276C32.8499 38.9255 32.0333 38.5872 31.1817 38.5872H22.1914V30.5858L23.8225 32.1655C23.9431 32.2818 24.1045 32.3463 24.272 32.3453H24.3491C24.4466 32.3337 24.5401 32.2999 24.6225 32.2464C24.7049 32.193 24.7739 32.1214 24.8243 32.0371L27.7654 27.1053C31.3628 27.5302 34.679 29.2611 37.0845 31.9696C39.4899 34.6781 40.8171 38.1756 40.8142 41.798V46.2931Z" fill="#828181"/>
<path d="M27.3416 25.821L25.9288 24.4596C25.8035 24.3425 25.6379 24.2781 25.4664 24.2798H25.4022V22.2891C26.9365 21.5613 28.2333 20.4139 29.1424 18.9797C30.0516 17.5454 30.536 15.8831 30.5395 14.185C31.2208 14.185 31.8741 13.9143 32.3559 13.4326C32.8376 12.9509 33.1082 12.2975 33.1082 11.6163C33.1124 11.244 33.0356 10.8752 32.8832 10.5354C32.7307 10.1957 32.5062 9.89322 32.2252 9.64889C31.9442 9.40455 31.6135 9.22423 31.2559 9.12041C30.8983 9.01659 30.5224 8.99176 30.1542 9.04764C30.0772 9.04764 13.0213 9.04764 12.9442 9.04764C12.5761 8.99176 12.2002 9.01659 11.8426 9.12041C11.485 9.22423 11.1543 9.40455 10.8733 9.64889C10.5923 9.89322 10.3678 10.1957 10.2153 10.5354C10.0629 10.8752 9.98608 11.244 9.99029 11.6163C9.99029 12.2975 10.2609 12.9509 10.7426 13.4326C11.2244 13.9143 11.8777 14.185 12.5589 14.185C12.5625 15.8831 13.0469 17.5454 13.956 18.9797C14.8652 20.4139 16.162 21.5613 17.6963 22.2891V24.2412C17.5259 24.2455 17.3624 24.3091 17.2339 24.421L15.8211 25.8338C11.7971 26.1467 8.03824 27.9628 5.29209 30.9207C2.54593 33.8786 1.01366 37.7618 1 41.798V50.7883C1 50.9586 1.06766 51.1219 1.18808 51.2424C1.30851 51.3628 1.47185 51.4304 1.64216 51.4304H8.77018C8.91822 52.1557 9.31229 52.8075 9.88568 53.2756C10.4591 53.7437 11.1766 53.9993 11.9168 53.9991H31.1817C31.9329 54.0143 32.6655 53.7655 33.2522 53.2962C33.8389 52.8268 34.2424 52.1666 34.3925 51.4304H41.4563C41.6266 51.4304 41.79 51.3628 41.9104 51.2424C42.0308 51.1219 42.0985 50.9586 42.0985 50.7883V41.798C42.0894 37.7698 40.5675 33.8921 37.8344 30.933C35.1012 27.9739 31.3563 26.1494 27.3416 25.821ZM30.5395 10.332C30.8802 10.332 31.2068 10.4673 31.4477 10.7081C31.6886 10.949 31.8239 11.2757 31.8239 11.6163C31.8239 11.9569 31.6886 12.2836 31.4477 12.5245C31.2068 12.7653 30.8802 12.9006 30.5395 12.9006V10.332ZM12.5589 12.9006C12.2183 12.9006 11.8916 12.7653 11.6508 12.5245C11.4099 12.2836 11.2746 11.9569 11.2746 11.6163C11.2746 11.2757 11.4099 10.949 11.6508 10.7081C11.8916 10.4673 12.2183 10.332 12.5589 10.332V12.9006ZM25.4921 25.7439L26.4939 26.7328L24.1179 30.7142L22.4483 29.0189L25.4921 25.7439ZM13.8433 14.185V10.332H29.2552V14.185C29.2552 16.2287 28.4433 18.1887 26.9982 19.6339C25.553 21.079 23.593 21.8909 21.5492 21.8909C19.5055 21.8909 17.5455 21.079 16.1003 19.6339C14.6552 18.1887 13.8433 16.2287 13.8433 14.185ZM21.5492 23.1752C22.4186 23.1713 23.2832 23.0459 24.1179 22.8028V25.3714L21.5492 28.0942L18.9806 25.3714V22.8028C19.8153 23.0459 20.6799 23.1713 21.5492 23.1752ZM17.6064 25.7439L20.6502 28.9676L18.9806 30.7142L16.6303 26.7842L17.6064 25.7439ZM8.70597 50.1461H2.28433V47.5775H8.70597V50.1461ZM8.70597 41.798V46.2931H2.28433V41.798C2.29392 38.1844 3.62679 34.6995 6.03105 32.0018C8.43532 29.3041 11.7444 27.5805 15.3331 27.1567L18.2742 32.0885C18.3246 32.1728 18.3936 32.2444 18.476 32.2978C18.5584 32.3513 18.6519 32.3851 18.7494 32.3967H18.8265C18.994 32.3977 19.1553 32.3332 19.276 32.2169L20.9071 30.5858V38.5872H11.9168C11.0652 38.5872 10.2485 38.9255 9.64639 39.5276C9.04425 40.1297 8.70597 40.9464 8.70597 41.798ZM33.1082 50.7883C33.1082 51.2992 32.9052 51.7892 32.5439 52.1505C32.1826 52.5118 31.6926 52.7148 31.1817 52.7148H11.9168C11.4058 52.7148 10.9158 52.5118 10.5545 52.1505C10.1933 51.7892 9.99029 51.2992 9.99029 50.7883V41.798C9.99029 41.2871 10.1933 40.797 10.5545 40.4358C10.9158 40.0745 11.4058 39.8715 11.9168 39.8715H31.1817C31.6926 39.8715 32.1826 40.0745 32.5439 40.4358C32.9052 40.797 33.1082 41.2871 33.1082 41.798V50.7883ZM40.8142 50.1461H34.3925V47.5775H40.8142V50.1461ZM40.8142 46.2931H34.3925V41.798C34.3925 40.9464 34.0542 40.1297 33.4521 39.5276C32.8499 38.9255 32.0333 38.5872 31.1817 38.5872H22.1914V30.5858L23.8225 32.1655C23.9431 32.2818 24.1045 32.3463 24.272 32.3453H24.3491C24.4466 32.3337 24.5401 32.2999 24.6225 32.2464C24.7049 32.193 24.7739 32.1214 24.8243 32.0371L27.7654 27.1053C31.3628 27.5302 34.679 29.2611 37.0845 31.9696C39.4899 34.6781 40.8171 38.1756 40.8142 41.798V46.2931Z" stroke="#828181" stroke-width="0.2" mask="url(#path-1-outside-1_3100_1443)"/>
<path d="M20.9067 47.5205H13.2008C13.0304 47.5205 12.8671 47.5882 12.7467 47.7086C12.6262 47.829 12.5586 47.9924 12.5586 48.1627V50.7313C12.5586 50.9016 12.6262 51.065 12.7467 51.1854C12.8671 51.3058 13.0304 51.3735 13.2008 51.3735H20.9067C21.077 51.3735 21.2404 51.3058 21.3608 51.1854C21.4812 51.065 21.5489 50.9016 21.5489 50.7313V48.1627C21.5489 47.9924 21.4812 47.829 21.3608 47.7086C21.2404 47.5882 21.077 47.5205 20.9067 47.5205ZM20.2646 50.0892H13.8429V48.8048H20.2646V50.0892Z" fill="#828181"/>
<path d="M26.1458 0H16.9391C15.3705 0.00363974 13.8671 0.658065 12.7579 1.82008C11.6487 2.9821 11.024 4.55709 11.0205 6.20042V8.95616C11.0205 9.50432 11.2284 10.03 11.5983 10.4176C11.9683 10.8052 12.4701 11.023 12.9934 11.023H30.0915C30.6147 11.023 31.1165 10.8052 31.4865 10.4176C31.8565 10.03 32.0644 9.50432 32.0644 8.95616V6.20042C32.0609 4.55709 31.4362 2.9821 30.327 1.82008C29.2178 0.658065 27.7144 0.00363974 26.1458 0Z" fill="#BF902D"/>
<path d="M26.3653 38.0791H16.7202C16.3397 38.0791 16.0312 38.3932 16.0312 38.7806V44.3923C16.0312 44.7797 16.3397 45.0937 16.7202 45.0937H26.3653C26.7458 45.0937 27.0542 44.7797 27.0542 44.3923V38.7806C27.0542 38.3932 26.7458 38.0791 26.3653 38.0791Z" fill="#BF902D"/>
<path d="M21.5488 5.08789C24.8763 4.98899 28.1562 5.85614 30.9941 7.57812L31.5557 7.93457L31.5576 7.93555L31.6592 8.02539C31.6901 8.05878 31.7173 8.09576 31.7412 8.13477C31.7888 8.21244 31.8208 8.2987 31.835 8.38867C31.8491 8.47864 31.8457 8.57067 31.8242 8.65918C31.8028 8.74763 31.7637 8.83082 31.71 8.9043L31.709 8.90527C31.6439 8.99028 31.5606 9.05952 31.4648 9.10742C31.369 9.15533 31.2634 9.18059 31.1562 9.18164C31.0093 9.18288 30.8652 9.14038 30.7432 9.05859C28.0188 7.26976 24.8082 6.36575 21.5508 6.47168H21.5469C18.2929 6.35827 15.0823 7.25114 12.3555 9.03027L12.3564 9.03125C12.2069 9.13624 12.0223 9.17972 11.8418 9.15137C11.6614 9.12301 11.4988 9.02557 11.3887 8.87988V8.87891C11.335 8.80549 11.2959 8.72218 11.2744 8.63379C11.2529 8.54521 11.2485 8.45234 11.2627 8.3623C11.2769 8.27241 11.3089 8.18601 11.3564 8.1084C11.404 8.03088 11.4665 7.96359 11.54 7.91016L11.542 7.9082C14.5072 5.9595 18.0024 4.9749 21.5488 5.08789Z" fill="#828181" stroke="#828181" stroke-width="0.1"/>
</svg>
