<svg width="26" height="26" viewBox="0 0 26 26" fill="none" xmlns="http://www.w3.org/2000/svg">
<rect width="26" height="26" rx="13" fill="white"/>
<path d="M10.8335 10.8333H11.9168V17.3333H10.8335V10.8333ZM14.0835 10.8333H15.1668V17.3333H14.0835V10.8333Z" fill="#EE0004"/>
<path d="M6.5 7.58332V8.66666H7.58333V19.5C7.58333 19.7873 7.69747 20.0629 7.90063 20.266C8.1038 20.4692 8.37935 20.5833 8.66667 20.5833H17.3333C17.6207 20.5833 17.8962 20.4692 18.0994 20.266C18.3025 20.0629 18.4167 19.7873 18.4167 19.5V8.66666H19.5V7.58332H6.5ZM8.66667 19.5V8.66666H17.3333V19.5H8.66667ZM10.8333 5.41666H15.1667V6.49999H10.8333V5.41666Z" fill="#EE0004"/>
</svg>
