<svg width="22" height="16" viewBox="0 0 22 16" fill="none" xmlns="http://www.w3.org/2000/svg">
<path fill-rule="evenodd" clip-rule="evenodd" d="M11 4.25C10.0054 4.25 9.05161 4.64509 8.34835 5.34835C7.64509 6.05161 7.25 7.00544 7.25 8C7.25 8.99456 7.64509 9.94839 8.34835 10.6517C9.05161 11.3549 10.0054 11.75 11 11.75C11.9946 11.75 12.9484 11.3549 13.6517 10.6517C14.3549 9.94839 14.75 8.99456 14.75 8C14.75 7.00544 14.3549 6.05161 13.6517 5.34835C12.9484 4.64509 11.9946 4.25 11 4.25ZM8.75 8C8.75 7.40326 8.98705 6.83097 9.40901 6.40901C9.83097 5.98705 10.4033 5.75 11 5.75C11.5967 5.75 12.169 5.98705 12.591 6.40901C13.0129 6.83097 13.25 7.40326 13.25 8C13.25 8.59674 13.0129 9.16903 12.591 9.59099C12.169 10.0129 11.5967 10.25 11 10.25C10.4033 10.25 9.83097 10.0129 9.40901 9.59099C8.98705 9.16903 8.75 8.59674 8.75 8Z" fill="#676767"/>
<path fill-rule="evenodd" clip-rule="evenodd" d="M11 0C6.38102 0 3.2693 2.47223 1.46326 4.56869L1.43153 4.60617C1.02223 5.08069 0.646698 5.5168 0.391907 6.03246C0.118698 6.5856 0 7.18811 0 8C0 8.81189 0.118698 9.4144 0.391907 9.96754C0.647721 10.4832 1.02326 10.9202 1.43153 11.3938L1.46428 11.4313C3.2693 13.5278 6.38102 16 11 16C15.619 16 18.7307 13.5278 20.5367 11.4313L20.5685 11.3938C20.9778 10.9202 21.3533 10.4832 21.6081 9.96754C21.8813 9.4144 22 8.81189 22 8C22 7.18811 21.8813 6.5856 21.6081 6.03246C21.3523 5.5168 20.9767 5.08069 20.5685 4.60617L20.5357 4.56869C18.7307 2.47223 15.619 0 11 0ZM2.68093 5.40526C4.34679 3.46971 7.06047 1.37143 11 1.37143C14.9395 1.37143 17.6522 3.46971 19.3191 5.40526C19.7693 5.9264 20.0313 6.23726 20.2042 6.58651C20.3659 6.91383 20.4651 7.31337 20.4651 8C20.4651 8.68663 20.3659 9.08617 20.2042 9.41349C20.0313 9.76274 19.7683 10.0736 19.3201 10.5947C17.6512 12.5303 14.9395 14.6286 11 14.6286C7.06047 14.6286 4.34781 12.5303 2.68093 10.5947C2.2307 10.0736 1.96874 9.76274 1.79581 9.41349C1.63414 9.08617 1.53488 8.68663 1.53488 8C1.53488 7.31337 1.63414 6.91383 1.79581 6.58651C1.96874 6.23726 2.23274 5.9264 2.68093 5.40526Z" fill="#676767"/>
</svg>
