<svg width="23" height="22" viewBox="0 0 23 22" fill="none" xmlns="http://www.w3.org/2000/svg">
<path d="M11.0781 2.6875C11.9691 2.6875 12.8236 3.04143 13.4536 3.67144C14.0836 4.30144 14.4375 5.15591 14.4375 6.04687C14.4375 6.74966 14.2131 7.28716 13.8691 7.71312C13.6263 8.00245 13.344 8.25621 13.0306 8.46697L12.8062 8.62419C12.4541 8.86875 12.2002 9.05016 12.0187 9.27322C11.833 9.49868 11.7372 9.78492 11.75 10.0768V11.4205C11.75 11.5987 11.6792 11.7696 11.5532 11.8956C11.4272 12.0216 11.2563 12.0924 11.0781 12.0924C10.8999 12.0924 10.729 12.0216 10.603 11.8956C10.477 11.7696 10.4062 11.5987 10.4062 11.4205V10.0768C10.4062 9.37937 10.632 8.84591 10.9773 8.42397C11.2259 8.12028 11.5323 7.88109 11.8051 7.68491L12.0376 7.52231C12.3869 7.27909 12.6409 7.09634 12.8223 6.87059C13.0115 6.63902 13.1082 6.34556 13.0938 6.04687C13.0938 5.5123 12.8814 4.99962 12.5034 4.62161C12.1254 4.24361 11.6127 4.03125 11.0781 4.03125C10.5435 4.03125 10.0309 4.24361 9.65286 4.62161C9.27486 4.99962 9.0625 5.5123 9.0625 6.04687C9.0625 6.22507 8.99171 6.39596 8.86571 6.52196C8.73971 6.64796 8.56882 6.71875 8.39062 6.71875C8.21243 6.71875 8.04154 6.64796 7.91554 6.52196C7.78954 6.39596 7.71875 6.22507 7.71875 6.04687C7.71875 5.15591 8.07268 4.30144 8.70269 3.67144C9.33269 3.04143 10.1872 2.6875 11.0781 2.6875ZM11.0781 13.5719C11.39 13.5719 11.689 13.6958 11.9095 13.9163C12.13 14.1368 12.2539 14.4358 12.2539 14.7477C12.2539 15.0595 12.13 15.3586 11.9095 15.5791C11.689 15.7996 11.39 15.9234 11.0781 15.9234C10.7663 15.9234 10.4672 15.7996 10.2467 15.5791C10.0262 15.3586 9.90234 15.0595 9.90234 14.7477C9.90234 14.4358 10.0262 14.1368 10.2467 13.9163C10.4672 13.6958 10.7663 13.5719 11.0781 13.5719Z" fill="#676767"/>
<path fill-rule="evenodd" clip-rule="evenodd" d="M11.0781 18.8126C12.6638 18.8126 14.0209 18.6285 15.1766 18.2899C16.5203 19.2292 18.3075 20.198 20.6188 21.3402C21.8496 21.953 23.0241 20.5635 22.2447 19.4321C21.2678 17.9943 20.4172 16.5968 19.7453 15.0112C20.7343 13.439 21.1428 11.504 21.1428 9.40771C21.1428 4.2074 18.6166 0.00146484 11.0647 0.00146484C3.51282 0.00146484 0.986572 4.22084 0.986572 9.40771C0.986572 14.608 3.51282 18.814 11.0647 18.814L11.0781 18.8126ZM18.6166 14.2976C18.5013 14.4802 18.4316 14.6879 18.4136 14.9031C18.3956 15.1183 18.4297 15.3347 18.5131 15.5339C19.2065 17.1867 20.0853 18.6379 21.0528 20.0623C18.8356 18.9564 17.1828 18.0467 15.9465 17.1867C15.7819 17.0718 15.5936 16.9952 15.3955 16.9627C15.1973 16.9301 14.9944 16.9424 14.8017 16.9986C13.7831 17.2955 12.5576 17.4675 11.0795 17.4675C7.54542 17.4675 5.43573 16.4893 4.18604 15.1428C2.92157 13.7722 2.34376 11.8103 2.34376 9.40503C2.34376 6.99972 2.92695 5.0244 4.1847 3.66722C5.43035 2.32347 7.54407 1.34253 11.0781 1.34253C14.6122 1.34253 16.7219 2.32078 17.9716 3.66722C19.2347 5.03784 19.8125 6.99972 19.8125 9.40503C19.8125 11.34 19.4309 13.0063 18.6193 14.2963L18.6166 14.2976Z" fill="#676767"/>
</svg>
