<svg width="69" height="57" viewBox="0 0 69 57" fill="none" xmlns="http://www.w3.org/2000/svg">
<path d="M51.26 21.171H56.74V15.5616H51.26V21.171ZM54 34.9514C51.315 34.9514 48.7183 34.4763 46.21 33.526C43.705 32.5757 41.3017 31.3679 39 29.9024V25.3038C39 24.1676 39.395 23.1952 40.185 22.3865C40.975 21.5779 41.9267 21.1727 43.04 21.171H48.76V14.9705C48.76 14.4416 48.9517 13.981 49.335 13.5886C49.7183 13.1962 50.1675 13 50.6825 13H57.3175C57.8342 13 58.2842 13.1962 58.6675 13.5886C59.0508 13.981 59.2425 14.4416 59.2425 14.9705V21.171H64.9625C66.0725 21.171 67.0225 21.5762 67.8125 22.3865C68.6025 23.1969 68.9983 24.1693 69 25.3038V29.9024C66.7 31.3696 64.2967 32.5774 61.79 33.526C59.2833 34.4763 56.6867 34.9514 54 34.9514ZM43.04 56.9974V54.4384C41.9283 54.4384 40.9775 54.0332 40.1875 53.2229C39.3975 52.4125 39.0017 51.4409 39 50.3081V32.9067C41.1417 34.1589 43.3558 35.1911 45.6425 36.0031C47.9292 36.8118 50.2983 37.3048 52.75 37.4823V40.0694H55.25V37.4823C57.7017 37.3048 60.0708 36.8109 62.3575 36.0006C64.6458 35.1902 66.86 34.1581 69 32.9042V50.3056C69 51.4435 68.6042 52.4168 67.8125 53.2254C67.0208 54.0341 66.0708 54.4393 64.9625 54.441V57H62.4625V54.441H45.5375V57L43.04 56.9974Z" fill="white"/>
<path d="M18.1573 16.6335L1.91657 9.74282C1.22677 9.47408 0.822702 8.98394 0.704354 8.27239C0.586007 7.56084 0.78128 6.95155 1.29018 6.44451L1.91404 5.77014C2.1558 5.53014 2.43054 5.3662 2.73824 5.27831C3.04595 5.19042 3.3714 5.17268 3.71461 5.22507L25.8084 9.03803L33.7665 1.06479C34.4782 0.354929 35.3388 0 36.3481 0C37.3575 0 38.2189 0.354929 38.9323 1.06479C39.6441 1.77634 40 2.63746 40 3.64817C40 4.65887 39.6441 5.51916 38.9323 6.22901L30.9718 14.1997L34.7733 36.2713C34.824 36.6161 34.8079 36.9448 34.7251 37.2575C34.6422 37.5685 34.4808 37.8448 34.2407 38.0865L33.5686 38.6949C33.0581 39.2054 32.4452 39.4039 31.73 39.2907C31.0132 39.1758 30.5204 38.7744 30.2515 38.0865L23.3688 21.8003L15.5857 29.5682L16.9298 37.4755C16.9839 37.7358 16.9797 37.9851 16.9171 38.2234C16.8563 38.4634 16.7261 38.6823 16.5266 38.88L15.8393 39.5189C15.442 39.9161 14.9889 40.0673 14.48 39.9727C13.9728 39.878 13.5882 39.5966 13.3261 39.1285L8.99207 31.0082L0.871732 26.673C0.403413 26.4144 0.121914 26.0307 0.0272362 25.522C-0.0674419 25.0132 0.0847189 24.5603 0.48372 24.1631L1.12026 23.4761C1.31807 23.2766 1.53701 23.138 1.77709 23.0603C2.01548 22.9825 2.26485 22.9699 2.52522 23.0223L10.4198 24.4014L18.1573 16.6335Z" fill="white"/>
</svg>
