<svg width="25" height="18" viewBox="0 0 25 18" fill="none" xmlns="http://www.w3.org/2000/svg">
<path d="M24.3362 2.30897C24.284 1.97782 24.1325 1.67033 23.9016 1.42729C23.6707 1.18425 23.3714 1.01713 23.0433 0.94809L19.0491 0.0703233C18.6208 -0.0230931 18.1774 -0.0234437 17.7489 0.0692948C17.3205 0.162033 16.9169 0.345698 16.5655 0.60787L4.75992 9.20862L1.45298 9.07254C1.18714 9.06302 0.925067 9.13751 0.703973 9.28542C0.482879 9.43333 0.314011 9.64715 0.221353 9.89649C0.128694 10.1458 0.116958 10.418 0.18781 10.6744C0.258661 10.9308 0.408499 11.1584 0.616041 11.3248L4.01824 13.9989C4.4265 14.4956 4.69868 14.4004 11.4554 10.7192L12.0883 17.1289C12.0988 17.3038 12.1587 17.4721 12.2611 17.6142C12.3635 17.7563 12.5041 17.8665 12.6666 17.9319C12.7834 17.9786 12.9083 18.0017 13.0341 17.9999C13.2871 17.9922 13.5288 17.8931 13.7145 17.7209L15.3408 16.2376C15.5027 16.0875 15.6124 15.8896 15.6538 15.6728L17.1439 7.57557C19.5731 6.21469 21.873 4.93546 23.5128 4.00326C23.8062 3.83823 24.0422 3.58759 24.1894 3.28483C24.3365 2.98207 24.3877 2.64161 24.3362 2.30897ZM22.8392 2.8193C21.1381 3.78552 18.7566 5.1396 16.1981 6.5413L15.9191 6.6978L14.3337 15.319L13.3335 16.2308L12.585 8.54179L11.68 9.00449C6.80124 11.7263 5.17499 12.5156 4.61703 12.7605L1.69114 10.4402L5.14777 10.5899L17.3957 1.70338C17.588 1.55906 17.8087 1.45716 18.0433 1.40438C18.2779 1.3516 18.521 1.34914 18.7566 1.39718L22.7371 2.25453C22.7985 2.26565 22.8547 2.29608 22.8975 2.34136C22.9403 2.38665 22.9676 2.44444 22.9753 2.5063C22.9893 2.56617 22.9836 2.62896 22.9591 2.68534C22.9346 2.74173 22.8925 2.78871 22.8392 2.8193Z" fill="#676767"/>
<path d="M4.76005 5.28939L7.18242 5.96983L8.29834 5.1601L5.57658 4.37079L6.80137 3.62231L10.5234 3.51344L12.0884 2.37711L6.80137 2.54041C6.63469 2.5314 6.46904 2.57162 6.32507 2.65609L4.53551 3.69716C4.38756 3.7848 4.26887 3.91428 4.19439 4.06928C4.11991 4.22428 4.09298 4.39785 4.11699 4.56813C4.14101 4.7384 4.21489 4.89776 4.32933 5.02612C4.44376 5.15447 4.59364 5.24607 4.76005 5.28939Z" fill="#676767"/>
</svg>
