<svg width="41" height="27" viewBox="0 0 41 27" fill="none" xmlns="http://www.w3.org/2000/svg">
<g clip-path="url(#clip0_3304_1319)">
<path d="M23.5264 20.5065H25.8787V22.8589H23.5264V20.5065ZM31.6579 20.5065H34.0102V22.8589H31.6579V20.5065ZM29.6846 12.1635V9.81226H26.4244V10.9575L27.6405 12.1646L29.6846 12.1635Z" fill="white"/>
<path d="M37.746 24.8746V19.9145H38.4941L39.1894 19.2271L30.9521 10.9898H29.9295V12.4175H27.5332L26.1056 10.9898H22.1501L13.9219 19.2181L14.6171 19.9133H15.7185V24.8735H13.5686C10.3534 21.7977 9.49836 14.8216 9.79873 9.63196L9.85161 9.52621H9.87748C11.2837 9.52621 12.5302 10.208 13.3065 11.2587L13.3144 11.27C13.8994 12.0608 14.2515 13.0565 14.2515 14.1331C14.2515 14.8756 14.085 15.5787 13.7857 16.2076L13.7981 16.1783C14.4259 16.0176 15.0096 15.7177 15.5059 15.3008L15.4991 15.3065C16.0158 14.8567 16.4299 14.3012 16.7135 13.6777C16.997 13.0541 17.1434 12.3769 17.1427 11.6918C17.1427 10.6175 16.7895 9.62633 16.1932 8.82758L16.2022 8.83996C15.6906 8.12653 14.9671 7.59258 14.1346 7.31406C13.302 7.03554 12.4029 7.02662 11.565 7.28858L11.5942 7.28071C11.8924 7.09508 12.2355 6.93083 12.5966 6.80596L12.6326 6.79471C13.1234 6.61342 13.6428 6.52159 14.166 6.52358C15.3844 6.52358 16.488 7.01071 17.2946 7.79933L17.2935 7.79821C17.413 7.16721 17.3771 6.51659 17.1889 5.90258L17.1967 5.93071C17.0102 5.38353 16.7142 4.88005 16.3268 4.45094C15.9394 4.02183 15.4688 3.67607 14.9434 3.43473C14.4181 3.19338 13.8492 3.0615 13.2713 3.04712C12.6933 3.03274 12.1185 3.13616 11.5819 3.35108L11.61 3.34096C11.3385 3.43453 11.0745 3.54848 10.8202 3.68183L10.8529 3.66608C10.7763 3.31425 10.6628 2.97148 10.5142 2.64346L10.5277 2.67608C9.53773 0.456458 7.26748 -0.592041 5.45286 0.324834C4.9628 0.575361 4.54173 0.942348 4.22661 1.39358L4.21986 1.40483C4.85852 1.4675 5.47373 1.67842 6.0165 2.0208C6.55927 2.36318 7.0146 2.82756 7.34623 3.37696L7.35636 3.39496C6.93539 3.18421 6.48984 3.02663 6.02998 2.92583L5.99173 2.91908C3.20173 2.31946 0.546733 3.83483 0.0708577 6.31096C-0.0562934 6.99022 -0.014178 7.69034 0.193483 8.34946L0.185608 8.32021C0.809483 7.61193 1.61693 7.08982 2.51882 6.81149C3.42071 6.53316 4.38197 6.50944 5.29648 6.74296L5.26048 6.73508C5.72061 6.83183 6.12786 6.97133 6.50923 7.15471L6.47661 7.14008C5.56387 7.01849 4.63562 7.17192 3.81055 7.58074C2.98549 7.98957 2.30112 8.6352 1.84498 9.43508L1.83261 9.45758C1.35636 10.2599 1.10638 11.1762 1.10923 12.1092C1.10923 13.8732 1.98336 15.4325 3.32323 16.3775L3.34011 16.3887C3.91666 16.7758 4.57446 17.0252 5.26273 17.1177L5.28636 17.12C4.79001 16.2975 4.5289 15.3547 4.53148 14.3941C4.53148 13.412 4.79811 12.4917 5.26386 11.7031L5.25036 11.7278C5.59636 11.1256 6.07078 10.6069 6.6399 10.2087C7.20901 9.81047 7.85885 9.54251 8.54323 9.42383L8.57136 9.41933C6.97723 16.679 6.53623 21.737 7.85136 24.8723H4.01961V26.9873H40.1861V24.8723H37.746V24.8746ZM28.8022 20.0292H36.864V24.8746H28.8022V20.0292ZM16.5836 19.0685L22.1524 13.4997L27.7211 19.0685V24.8746H21.6067V20.5051H18.5141V24.8746H16.5769V19.0685H16.5836Z" fill="white"/>
</g>
<defs>
<clipPath id="clip0_3304_1319">
<rect width="40.5" height="27" fill="white"/>
</clipPath>
</defs>
</svg>
