<svg width="80" height="22" viewBox="0 0 80 22" fill="none" xmlns="http://www.w3.org/2000/svg">
<path d="M6.93 17.198C6.006 17.198 5.172 17.06 4.428 16.784C3.696 16.508 3.066 16.112 2.538 15.596C2.01 15.08 1.608 14.456 1.332 13.724C1.056 12.98 0.918 12.158 0.918 11.258C0.918 10.334 1.068 9.5 1.368 8.756C1.668 8 2.094 7.352 2.646 6.812C3.198 6.26 3.852 5.84 4.608 5.552C5.364 5.264 6.198 5.12 7.11 5.12C8.13 5.12 9.024 5.294 9.792 5.642C10.572 5.99 11.196 6.482 11.664 7.118C12.132 7.742 12.408 8.486 12.492 9.35H10.926C10.77 8.798 10.518 8.324 10.17 7.928C9.822 7.532 9.39 7.226 8.874 7.01C8.358 6.794 7.77 6.686 7.11 6.686C6.21 6.686 5.43 6.884 4.77 7.28C4.11 7.664 3.594 8.204 3.222 8.9C2.85 9.584 2.664 10.37 2.664 11.258C2.664 12.134 2.826 12.902 3.15 13.562C3.486 14.21 3.972 14.72 4.608 15.092C5.256 15.452 6.036 15.632 6.948 15.632C7.656 15.632 8.274 15.512 8.802 15.272C9.342 15.02 9.78 14.672 10.116 14.228C10.464 13.772 10.704 13.226 10.836 12.59L11.736 12.482C11.556 14.03 11.04 15.206 10.188 16.01C9.336 16.802 8.25 17.198 6.93 17.198ZM11.34 17C11.34 16.616 11.352 16.178 11.376 15.686C11.412 15.182 11.448 14.678 11.484 14.174C11.532 13.658 11.574 13.196 11.61 12.788H7.236V11.384H12.942V17H11.34ZM21.2089 17.198C19.9969 17.198 18.9169 16.952 17.9689 16.46C17.0329 15.968 16.2949 15.272 15.7549 14.372C15.2269 13.472 14.9629 12.404 14.9629 11.168C14.9629 9.92 15.2269 8.846 15.7549 7.946C16.2949 7.046 17.0329 6.35 17.9689 5.858C18.9169 5.366 19.9969 5.12 21.2089 5.12C22.4329 5.12 23.5129 5.366 24.4489 5.858C25.3849 6.35 26.1229 7.046 26.6629 7.946C27.2029 8.846 27.4729 9.92 27.4729 11.168C27.4729 12.404 27.2029 13.472 26.6629 14.372C26.1229 15.272 25.3849 15.968 24.4489 16.46C23.5129 16.952 22.4329 17.198 21.2089 17.198ZM21.2089 15.632C22.0729 15.632 22.8409 15.464 23.5129 15.128C24.1849 14.792 24.7189 14.294 25.1149 13.634C25.5109 12.974 25.7089 12.152 25.7089 11.168C25.7089 10.184 25.5109 9.362 25.1149 8.702C24.7189 8.042 24.1849 7.544 23.5129 7.208C22.8409 6.86 22.0729 6.686 21.2089 6.686C20.3689 6.686 19.6069 6.86 18.9229 7.208C18.2389 7.544 17.6989 8.042 17.3029 8.702C16.9069 9.362 16.7089 10.184 16.7089 11.168C16.7089 12.152 16.9069 12.974 17.3029 13.634C17.6989 14.294 18.2389 14.792 18.9229 15.128C19.6069 15.464 20.3689 15.632 21.2089 15.632Z" fill="white"/>
<path d="M79.7077 11.6909C80.098 11.3002 80.0977 10.6671 79.7071 10.2767L73.3404 3.91549C72.9497 3.52513 72.3165 3.5254 71.9262 3.9161C71.5358 4.30679 71.5361 4.93995 71.9268 5.33031L77.586 10.9847L71.9316 16.644C71.5413 17.0347 71.5415 17.6679 71.9322 18.0582C72.3229 18.4486 72.9561 18.4483 73.3464 18.0576L79.7077 11.6909ZM42 11L42.0004 12L79.0007 11.9841L79.0003 10.9841L78.9998 9.98413L41.9996 10L42 11Z" fill="white"/>
</svg>
