<svg width="19" height="19" viewBox="0 0 19 19" fill="none" xmlns="http://www.w3.org/2000/svg">
<path d="M12.3567 5.58161C11.8242 2.30241 10.5683 0 9.10684 0C7.64534 0 6.38947 2.30241 5.85702 5.58161H12.3567ZM5.58161 9.10684C5.58161 9.92204 5.62567 10.7042 5.70279 11.457H12.5072C12.5843 10.7042 12.6284 9.92204 12.6284 9.10684C12.6284 8.29163 12.5843 7.50947 12.5072 6.75668H5.70279C5.62567 7.50947 5.58161 8.29163 5.58161 9.10684ZM17.505 5.58161C16.4547 3.08825 14.3286 1.16039 11.703 0.3819C12.599 1.62307 13.2159 3.49218 13.5391 5.58161H17.505ZM6.50698 0.3819C3.88509 1.16039 1.75527 3.08825 0.708717 5.58161H4.6746C4.99407 3.49218 5.61099 1.62307 6.50698 0.3819ZM17.8979 6.75668H13.686C13.7631 7.52783 13.8071 8.31733 13.8071 9.10684C13.8071 9.89634 13.7631 10.6858 13.686 11.457H17.8942C18.0962 10.7042 18.21 9.92204 18.21 9.10684C18.21 8.29163 18.0962 7.50947 17.8979 6.75668ZM4.40653 9.10684C4.40653 8.31733 4.4506 7.52783 4.52771 6.75668H0.315802C0.117508 7.50947 0 8.29163 0 9.10684C0 9.92204 0.117508 10.7042 0.315802 11.457H4.52404C4.4506 10.6858 4.40653 9.89634 4.40653 9.10684ZM5.85702 12.6321C6.38947 15.9113 7.64534 18.2137 9.10684 18.2137C10.5683 18.2137 11.8242 15.9113 12.3567 12.6321H5.85702ZM11.7067 17.8318C14.3286 17.0533 16.4584 15.1254 17.5086 12.6321H13.5427C13.2196 14.7215 12.6027 16.5906 11.7067 17.8318ZM0.708717 12.6321C1.75894 15.1254 3.88509 17.0533 6.51065 17.8318C5.61466 16.5906 4.99774 14.7215 4.6746 12.6321H0.708717Z" fill="#8F8B8B"/>
</svg>
