<svg width="19" height="21" viewBox="0 0 19 21" fill="none" xmlns="http://www.w3.org/2000/svg">
<path d="M5.26871 7.15393H6.85761C6.91817 6.05523 7.12344 5.06669 7.43521 4.29195C6.30887 4.83012 5.48332 5.88492 5.26871 7.15393ZM5.26871 8.45464C5.48373 9.72365 6.30887 10.7785 7.43521 11.3166C7.12304 10.5419 6.91817 9.55334 6.85761 8.45464H5.26871ZM9.105 11.6532C9.41758 11.3504 9.94924 10.2541 10.0574 8.45464H8.15223C8.26075 10.2537 8.79242 11.3504 9.105 11.6532ZM8.15263 7.15393H10.0578C9.94965 5.35488 9.41798 4.25821 9.10541 3.95539C8.79242 4.25821 8.26076 5.35488 8.15263 7.15393ZM10.7748 11.3166C11.9011 10.7785 12.7267 9.72365 12.9413 8.45464H11.3524C11.2918 9.55334 11.087 10.5419 10.7748 11.3166ZM16.9093 0H2.60143C1.16455 0 0 1.16455 0 2.60143V18.21C0 19.6469 1.16455 20.8114 2.60143 20.8114H16.9093C17.6275 20.8114 18.21 20.229 18.21 19.5107V1.30071C18.21 0.582476 17.6275 0 16.9093 0ZM13.6575 16.9093H4.5525C4.1948 16.9093 3.90214 16.6166 3.90214 16.2589C3.90214 15.9012 4.1948 15.6086 4.5525 15.6086H13.6575C14.0152 15.6086 14.3079 15.9012 14.3079 16.2589C14.3079 16.6166 14.0152 16.9093 13.6575 16.9093ZM9.105 13.0071C6.23164 13.0071 3.90214 10.6776 3.90214 7.80429C3.90214 4.93093 6.23164 2.60143 9.105 2.60143C11.9784 2.60143 14.3079 4.93093 14.3079 7.80429C14.3079 10.6776 11.9784 13.0071 9.105 13.0071ZM10.7748 4.29195C11.087 5.06669 11.2918 6.05523 11.3524 7.15393H12.9413C12.7267 5.88492 11.9011 4.83012 10.7748 4.29195Z" fill="#8F8B8B"/>
</svg>
