<svg width="19" height="19" viewBox="0 0 19 19" fill="none" xmlns="http://www.w3.org/2000/svg">
<path d="M12.3411 3.56911C10.4049 3.56911 8.80587 2.31237 6.37162 2.31237C5.46997 2.31237 4.6623 2.47077 3.91309 2.74641C4.01692 2.47524 4.06111 2.18488 4.04266 1.89509C3.97863 0.867672 3.13638 0.0435612 2.10781 0.00172156C0.95187 -0.0453209 0 0.877825 0 2.02332C0 2.71075 0.343136 3.31771 0.867143 3.68336V17.6319C0.867143 18.1108 1.25537 18.499 1.73429 18.499H2.31238C2.7913 18.499 3.17952 18.1108 3.17952 17.6319V14.2211C4.20243 13.7852 5.4768 13.4218 7.31417 13.4218C9.25035 13.4218 10.8494 14.6786 13.2836 14.6786C15.024 14.6786 16.415 14.0899 17.7098 13.2023C18.0236 12.9873 18.21 12.6303 18.21 12.25V3.46657C18.21 2.62136 17.3331 2.06216 16.5666 2.4182C15.3259 2.99441 13.8042 3.56911 12.3411 3.56911Z" fill="#8F8B8B"/>
</svg>
