<svg width="23" height="23" viewBox="0 0 23 23" fill="none" xmlns="http://www.w3.org/2000/svg">
<path d="M1 8.93481L10.0033 1.73217C10.7548 1.13094 11.8227 1.13094 12.5742 1.73217L21.5775 8.93481" stroke="#838282" stroke-width="1.5" stroke-linecap="round" stroke-linejoin="round"/>
<path d="M8.69342 2.81237L4.57792 6.15622C3.83069 6.76334 3.45708 7.0669 3.25734 7.48653C3.05762 7.90615 3.05762 8.38754 3.05762 9.35034V13.0503C3.05762 16.9304 3.05762 18.8705 4.26302 20.0759C5.46843 21.2813 7.40849 21.2813 11.2886 21.2813C15.1687 21.2813 17.1089 21.2813 18.3142 20.0759C19.5196 18.8705 19.5196 16.9304 19.5196 13.0503V9.35034C19.5196 8.38754 19.5196 7.90615 19.3199 7.48653C19.1201 7.0669 18.7465 6.76334 17.9994 6.15622L13.8839 2.81237C12.6408 1.80237 12.0192 1.29736 11.2886 1.29736C10.558 1.29736 9.93648 1.80237 8.69342 2.81237Z" stroke="#838282" stroke-width="1.5"/>
<path d="M8.97363 15.3652H13.6036" stroke="#BF902D" stroke-width="1.5" stroke-linecap="round"/>
</svg>
