<svg width="23" height="22" viewBox="0 0 23 22" fill="none" xmlns="http://www.w3.org/2000/svg">
<path d="M1 8.65356L10.0033 1.45092C10.7548 0.849694 11.8227 0.849694 12.5742 1.45092L21.5775 8.65356" stroke="white" stroke-width="1.5" stroke-linecap="round" stroke-linejoin="round"/>
<path d="M8.69342 2.53063L4.57792 5.87448C3.83069 6.4816 3.45708 6.78516 3.25734 7.20479C3.05762 7.62442 3.05762 8.10581 3.05762 9.0686V12.7685C3.05762 16.6486 3.05762 18.5888 4.26302 19.7941C5.46843 20.9995 7.40849 20.9995 11.2886 20.9995C15.1687 20.9995 17.1089 20.9995 18.3142 19.7941C19.5196 18.5888 19.5196 16.6486 19.5196 12.7685V9.0686C19.5196 8.10581 19.5196 7.62442 19.3199 7.20479C19.1201 6.78516 18.7465 6.4816 17.9994 5.87448L13.8839 2.53063C12.6408 1.52063 12.0192 1.01562 11.2886 1.01562C10.558 1.01562 9.93648 1.52063 8.69342 2.53063Z" stroke="white" stroke-width="1.5"/>
<path d="M8.97363 15.084H13.6036" stroke="white" stroke-width="1.5" stroke-linecap="round"/>
</svg>
