<svg width="32" height="22" viewBox="0 0 32 22" fill="none" xmlns="http://www.w3.org/2000/svg">
<path d="M18.7336 16.3293H20.6068V18.2025H18.7336V16.3293ZM25.2087 16.3293H27.0819V18.2025H25.2087V16.3293ZM23.6374 9.68577V7.81348H21.0413V8.72543L22.0097 9.68666L23.6374 9.68577Z" fill="#676767"/>
<path d="M30.057 19.8091V15.8593H30.6528L31.2064 15.312L24.6471 8.7527H23.8328V9.88951H21.9247L20.7878 8.7527H17.6381L11.086 15.3048L11.6396 15.8585H12.5166V19.8082H10.8047C8.24438 17.359 7.56355 11.8039 7.80274 7.67143L7.84484 7.58722H7.86545C8.98524 7.58722 9.97782 8.1301 10.5959 8.9668L10.6022 8.97576C11.0681 9.60553 11.3484 10.3983 11.3484 11.2557C11.3484 11.8469 11.2159 12.4068 10.9776 12.9076L10.9874 12.8843C11.4874 12.7563 11.9522 12.5175 12.3473 12.1855L12.3419 12.19C12.7536 11.832 13.0835 11.3897 13.3093 10.8932C13.5351 10.3966 13.6515 9.85723 13.6507 9.3117C13.6507 8.45618 13.3694 7.66695 12.8947 7.03091L12.9018 7.04076C12.4944 6.47267 11.9183 6.04749 11.2554 5.8257C10.5924 5.60391 9.87641 5.59681 9.2092 5.80541L9.23249 5.79914C9.46988 5.65133 9.74311 5.52053 10.0307 5.4211L10.0593 5.41214C10.4502 5.26795 10.8637 5.19483 11.2804 5.19624C12.2506 5.19624 13.1294 5.58414 13.7717 6.21212L13.7708 6.21122C13.8665 5.7088 13.8379 5.19058 13.6875 4.70174L13.6937 4.72414C13.5452 4.28842 13.3095 3.8875 13.001 3.5458C12.6926 3.2041 12.3178 2.92878 11.8995 2.7366C11.4811 2.54441 11.0281 2.4394 10.5679 2.42795C10.1077 2.4165 9.64998 2.49885 9.22264 2.66999L9.24503 2.66193C9.02878 2.73623 8.81855 2.82697 8.61616 2.93337L8.64214 2.92083C8.58083 2.64075 8.49045 2.36783 8.37249 2.10651L8.38324 2.13249C7.59491 0.365013 5.78711 -0.469903 4.34214 0.260201C3.95213 0.46003 3.61691 0.752195 3.36568 1.11124L3.3603 1.1202C3.86894 1.16983 4.35894 1.33767 4.79119 1.61034C5.22343 1.883 5.58596 2.25293 5.84982 2.6906L5.85789 2.70493C5.52284 2.5367 5.16801 2.4112 4.8017 2.33137L4.77124 2.32599C2.54957 1.84851 0.435406 3.0552 0.056469 5.02693C-0.0447811 5.56782 -0.0112447 6.12533 0.154115 6.65018L0.147844 6.62689C0.644448 6.06265 1.2874 5.64671 2.00564 5.42506C2.72387 5.20341 3.4894 5.18467 4.21761 5.37093L4.18895 5.36466C4.55534 5.4417 4.87964 5.55278 5.18332 5.69881L5.15734 5.68716C4.43049 5.58985 3.69114 5.7118 3.03405 6.0374C2.37695 6.36299 1.83206 6.87739 1.4692 7.51466L1.45934 7.53258C1.08052 8.17161 0.881497 8.90117 0.883323 9.64406C0.883323 11.0487 1.57939 12.2903 2.64632 13.0428L2.65976 13.0518C3.11845 13.3609 3.64245 13.5596 4.19074 13.6323L4.20955 13.6341C3.81452 12.9791 3.60662 12.2284 3.60845 11.4635C3.60845 10.6814 3.82076 9.94864 4.19164 9.32066L4.18089 9.34037C4.45621 8.86062 4.83394 8.44747 5.28716 8.13036C5.74037 7.81325 6.25794 7.59996 6.80299 7.5057L6.82539 7.50212C5.55599 13.2829 5.20482 17.3106 6.25205 19.8073H3.20084V21.4915H32.0001V19.8073H30.057V19.8091ZM22.9352 15.9507H29.3547V19.8091H22.9352V15.9507ZM13.2055 15.1857L17.6399 10.7513L22.0743 15.1857V19.8091H17.2054V16.3297H14.7428V19.8091H13.2001V15.1857H13.2055Z" fill="#676767"/>
</svg>
