<svg width="27" height="27" viewBox="0 0 27 27" fill="none" xmlns="http://www.w3.org/2000/svg">
<path d="M1 13.5C1 7.60789 1 4.66053 2.83026 2.83026C4.66053 1 7.60658 1 13.5 1C19.3921 1 22.3395 1 24.1697 2.83026C26 4.66053 26 7.60658 26 13.5C26 19.3921 26 22.3395 24.1697 24.1697C22.3395 26 19.3934 26 13.5 26C7.60789 26 4.66053 26 2.83026 24.1697C1 22.3395 1 19.3934 1 13.5Z" stroke="#828181" stroke-width="2" stroke-linecap="round" stroke-linejoin="round"/>
<path d="M6.96973 13.5377H16.1487M16.1487 13.5377C16.1487 14.2877 13.3131 16.81 13.3131 16.81M16.1487 13.5377C16.1487 12.7666 13.3131 10.2942 13.3131 10.2942M20.1289 8.23108V18.7574" stroke="#BF902D" stroke-width="1.5" stroke-linecap="round" stroke-linejoin="round"/>
</svg>
