<svg width="59" height="53" viewBox="0 0 59 53" fill="none" xmlns="http://www.w3.org/2000/svg">
<path d="M0 0V42.2412H10.5159V53L13.9335 50.2269L23.8584 42.2412H58.8889V0H0ZM2.24339 2.26115H56.6455V39.98H22.4114L21.8204 40.4426L12.7593 48.0806L12.619 40.2407H2.10317L2.24339 2.26115Z" fill="#828181"/>
<path d="M12.6191 24.5123V24.2141C12.6191 23.6721 13.0585 23.2327 13.6006 23.2327H36.8757C37.4177 23.2327 37.8572 23.6721 37.8572 24.2141V24.5123C37.8572 25.0544 37.4178 25.4938 36.8757 25.4938H13.6006C13.0585 25.4938 12.6191 25.0544 12.6191 24.5123Z" fill="#BF902D"/>
<path d="M12.6191 18.027V17.7288C12.6191 17.1868 13.0585 16.7474 13.6006 16.7474H45.2884C45.8304 16.7474 46.2699 17.1868 46.2699 17.7288V18.027C46.2699 18.5691 45.8304 19.0085 45.2884 19.0085H13.6006C13.0585 19.0085 12.6191 18.5691 12.6191 18.027Z" fill="#BF902D"/>
<path d="M12.6191 12.7346V12.4364C12.6191 11.8943 13.0585 11.4549 13.6006 11.4549H32.9498C33.4918 11.4549 33.9312 11.8943 33.9312 12.4364V12.7346C33.9312 13.2766 33.4918 13.716 32.9498 13.716H13.6006C13.0585 13.716 12.6191 13.2766 12.6191 12.7346Z" fill="#BF902D"/>
</svg>
