<svg width="30" height="30" viewBox="0 0 30 30" fill="none" xmlns="http://www.w3.org/2000/svg">
<path d="M15 0.5C23.0149 0.5 29.5 6.98513 29.5 15C29.5 23.0149 23.0149 29.5 15 29.5C6.98513 29.5 0.5 23.0149 0.5 15C0.5 6.98513 6.98513 0.5 15 0.5ZM15 1.375C7.48753 1.375 1.375 7.48753 1.375 15C1.375 22.511 7.48608 28.6543 15 28.6543C22.5139 28.6543 28.625 22.511 28.625 15C28.625 7.48753 22.5125 1.375 15 1.375ZM8.4375 14.5625H21.5625C21.8137 14.5625 22 14.7488 22 15C22 15.2512 21.8137 15.4375 21.5625 15.4375H8.4375C8.1863 15.4375 8 15.2512 8 15C8 14.7488 8.1863 14.5625 8.4375 14.5625Z" fill="#B9952E" stroke="#B9952E"/>
</svg>
