<svg width="32" height="28" viewBox="0 0 32 28" fill="none" xmlns="http://www.w3.org/2000/svg">
<path d="M23.3333 12.4444H21.7778C21.3652 12.4444 20.9696 12.6083 20.6778 12.9001C20.3861 13.1918 20.2222 13.5874 20.2222 14C20.2222 14.4126 20.3861 14.8082 20.6778 15.0999C20.9696 15.3917 21.3652 15.5556 21.7778 15.5556H23.3333C23.7459 15.5556 24.1416 15.3917 24.4333 15.0999C24.725 14.8082 24.8889 14.4126 24.8889 14C24.8889 13.5874 24.725 13.1918 24.4333 12.9001C24.1416 12.6083 23.7459 12.4444 23.3333 12.4444ZM23.3333 18.6667H21.7778C21.3652 18.6667 20.9696 18.8306 20.6778 19.1223C20.3861 19.414 20.2222 19.8097 20.2222 20.2222C20.2222 20.6348 20.3861 21.0304 20.6778 21.3222C20.9696 21.6139 21.3652 21.7778 21.7778 21.7778H23.3333C23.7459 21.7778 24.1416 21.6139 24.4333 21.3222C24.725 21.0304 24.8889 20.6348 24.8889 20.2222C24.8889 19.8097 24.725 19.414 24.4333 19.1223C24.1416 18.8306 23.7459 18.6667 23.3333 18.6667ZM14 9.33333H23.3333C23.7459 9.33333 24.1416 9.16945 24.4333 8.87772C24.725 8.586 24.8889 8.19034 24.8889 7.77778C24.8889 7.36522 24.725 6.96956 24.4333 6.67783C24.1416 6.38611 23.7459 6.22222 23.3333 6.22222H14C13.5874 6.22222 13.1918 6.38611 12.9001 6.67783C12.6083 6.96956 12.4444 7.36522 12.4444 7.77778C12.4444 8.19034 12.6083 8.586 12.9001 8.87772C13.1918 9.16945 13.5874 9.33333 14 9.33333ZM29.5556 0H7.77778C7.36522 0 6.96956 0.163888 6.67783 0.455612C6.38611 0.747335 6.22222 1.143 6.22222 1.55556V6.22222H1.55556C1.143 6.22222 0.747335 6.38611 0.455612 6.67783C0.163888 6.96956 0 7.36522 0 7.77778V23.3333C0 24.571 0.491665 25.758 1.36684 26.6332C2.242 27.5083 3.42899 28 4.66667 28H24.8889C26.5391 28 28.1218 27.3444 29.2887 26.1776C30.4556 25.0107 31.1111 23.428 31.1111 21.7778V1.55556C31.1111 1.143 30.9472 0.747335 30.6555 0.455612C30.3638 0.163888 29.9681 0 29.5556 0ZM6.22222 23.3333C6.22222 23.7459 6.05833 24.1416 5.76661 24.4333C5.47489 24.725 5.07923 24.8889 4.66667 24.8889C4.25411 24.8889 3.85845 24.725 3.56672 24.4333C3.275 24.1416 3.11111 23.7459 3.11111 23.3333V9.33333H6.22222V23.3333ZM28 21.7778C28 22.6029 27.6722 23.3942 27.0888 23.9777C26.5053 24.5611 25.714 24.8889 24.8889 24.8889H9.05333C9.23444 24.3901 9.32913 23.864 9.33333 23.3333V3.11111H28V21.7778ZM14 15.5556H15.5556C15.9681 15.5556 16.3638 15.3917 16.6555 15.0999C16.9472 14.8082 17.1111 14.4126 17.1111 14C17.1111 13.5874 16.9472 13.1918 16.6555 12.9001C16.3638 12.6083 15.9681 12.4444 15.5556 12.4444H14C13.5874 12.4444 13.1918 12.6083 12.9001 12.9001C12.6083 13.1918 12.4444 13.5874 12.4444 14C12.4444 14.4126 12.6083 14.8082 12.9001 15.0999C13.1918 15.3917 13.5874 15.5556 14 15.5556ZM14 21.7778H15.5556C15.9681 21.7778 16.3638 21.6139 16.6555 21.3222C16.9472 21.0304 17.1111 20.6348 17.1111 20.2222C17.1111 19.8097 16.9472 19.414 16.6555 19.1223C16.3638 18.8306 15.9681 18.6667 15.5556 18.6667H14C13.5874 18.6667 13.1918 18.8306 12.9001 19.1223C12.6083 19.414 12.4444 19.8097 12.4444 20.2222C12.4444 20.6348 12.6083 21.0304 12.9001 21.3222C13.1918 21.6139 13.5874 21.7778 14 21.7778Z" fill="#C0902C"/>
</svg>
