<svg width="30" height="30" viewBox="0 0 30 30" fill="none" xmlns="http://www.w3.org/2000/svg">
<path d="M15 0.5C23.0085 0.5 29.5 6.99191 29.5 15C29.5 23.0085 23.0085 29.5 15 29.5C6.99191 29.5 0.5 23.0085 0.5 15C0.5 6.99192 6.99192 0.5 15 0.5ZM15 1.375C7.48683 1.375 1.375 7.48683 1.375 15C1.37503 22.5117 7.48538 28.6543 15 28.6543C22.5146 28.6543 28.625 22.5116 28.625 15C28.625 7.48686 22.5132 1.375 15 1.375ZM15 8C15.2414 8 15.4375 8.19614 15.4375 8.4375V14.5625H21.5625C21.8039 14.5625 22 14.7586 22 15C22 15.2414 21.8039 15.4375 21.5625 15.4375H15.4375V21.5625C15.4375 21.8039 15.2414 22 15 22C14.7586 22 14.5625 21.8039 14.5625 21.5625V15.4375H8.4375C8.19614 15.4375 8 15.2414 8 15C8 14.7586 8.19614 14.5625 8.4375 14.5625H14.5625V8.4375C14.5625 8.19614 14.7586 8 15 8Z" fill="#B9952E" stroke="#B9952E"/>
</svg>
