<svg width="48" height="56" viewBox="0 0 48 56" fill="none" xmlns="http://www.w3.org/2000/svg">
<path d="M37.5107 26.0107C37.6813 25.7615 38.0223 25.701 38.2695 25.8721L38.3535 25.9434C38.5297 26.1264 38.5578 26.4133 38.4082 26.6299L30.3096 38.3438C29.3059 39.7947 27.9201 40.9329 26.3018 41.6367L20.7139 44.0654C20.2614 44.2626 19.8551 44.5384 19.5068 44.8857L19.5078 44.8867L16.6426 47.752L16.6416 47.751C16.5364 47.858 16.3969 47.9121 16.2578 47.9121C16.1533 47.9121 16.0487 47.8817 15.958 47.8223L15.8721 47.7529C15.6594 47.5402 15.6594 47.1942 15.8721 46.9814L18.7373 44.1162C19.1826 43.6709 19.7015 43.3181 20.2793 43.0664L25.8682 40.6377C27.2991 40.0154 28.526 39.0076 29.4131 37.7236L37.5107 26.0107Z" fill="#828181" stroke="#828181" stroke-width="0.2"/>
<path d="M15.9238 25.8203C16.1984 25.6984 16.5219 25.8286 16.6406 26.1055L18.5859 30.6445C18.9977 31.6035 19.7573 32.3461 20.7266 32.7334L22.2383 33.3379C22.9433 33.6209 23.711 33.6913 24.4561 33.542L26.0381 33.2246C26.9272 33.0466 27.7334 32.5614 28.3047 31.8574L33.083 25.9766L33.1611 25.8984C33.3574 25.7385 33.6458 25.7302 33.8506 25.8965C34.0839 26.0862 34.1202 26.4298 33.9307 26.6641L29.1523 32.5449C28.4198 33.4455 27.3908 34.0667 26.2529 34.2939L24.6709 34.6104C24.3447 34.6758 24.0155 34.708 23.6885 34.708C23.0559 34.708 22.4273 34.5877 21.833 34.3496L20.3223 33.7451C19.0829 33.249 18.1101 32.2999 17.584 31.0732L15.6387 26.5352C15.5198 26.2592 15.6483 25.9396 15.9238 25.8203Z" fill="#828181" stroke="#828181" stroke-width="0.2"/>
<path d="M12.5264 25.7793C12.8342 25.7397 13.0923 25.9753 13.1201 26.2695L13.7129 32.4883C13.9179 34.6412 13.1578 36.7533 11.6289 38.2822L9.40137 40.5107L9.40039 40.5098C9.29407 40.617 9.15441 40.6699 9.01562 40.6699C8.91108 40.6699 8.80649 40.6396 8.71582 40.5801L8.62988 40.5107C8.41717 40.298 8.41719 39.952 8.62988 39.7393L10.8584 37.5107C12.1562 36.2128 12.8014 34.4199 12.6279 32.5918L12.0352 26.373C12.0068 26.0734 12.2262 25.8067 12.5264 25.7783V25.7793Z" fill="#828181" stroke="#828181" stroke-width="0.2"/>
<path d="M5.48145 40.3691C5.8679 39.9819 6.49467 39.9821 6.88184 40.3691L16.0137 49.501C16.4008 49.8874 16.4007 50.5142 16.0137 50.9014L12.5498 54.3652C12.1634 54.7524 11.5366 54.7522 11.1494 54.3652L2.01758 45.2334C1.6305 44.8462 1.63037 44.2195 2.01758 43.833L5.48145 40.3691Z" fill="#EFEFEF" stroke="#828181" stroke-width="0.2"/>
<path d="M5.27344 39.958C5.82731 39.5126 6.68825 39.5446 7.19824 40.0537L16.3291 49.1846C16.888 49.7445 16.8878 50.6548 16.3291 51.2148V51.2158L12.8643 54.6787C12.5935 54.9504 12.2332 55.1005 11.8496 55.1006C11.466 55.1006 11.1048 54.9505 10.834 54.6797L1.70215 45.5488V45.5479C1.14335 44.9879 1.14335 44.0776 1.70215 43.5176V43.5166L5.16699 40.0537L5.27344 39.958ZM6.4248 40.8242C6.29656 40.6964 6.06687 40.6962 5.93652 40.8252L5.93555 40.8242L2.47363 44.2881C2.33901 44.4227 2.33901 44.6427 2.47363 44.7773L11.6045 53.9092C11.7337 54.0383 11.9635 54.0381 12.0928 53.9092L15.5566 50.4453L15.6006 50.3916C15.6761 50.2767 15.676 50.1257 15.6006 50.0107L15.5566 49.957L6.4248 40.8242Z" fill="#828181" stroke="#828181" stroke-width="0.2"/>
<path d="M45.9766 20.4307C46.7682 20.4308 47.4121 21.0745 47.4121 21.8662V23.6475C47.4121 24.44 46.7681 25.0828 45.9766 25.083H2.33594C1.54418 25.083 0.900404 24.4392 0.900391 23.6475V21.8662C0.900391 21.0744 1.54417 20.4307 2.33594 20.4307H45.9766ZM2.33594 21.5205C2.14536 21.5205 1.99023 21.6756 1.99023 21.8662V23.6475C1.99025 23.838 2.14536 23.9932 2.33594 23.9932H45.9766C46.167 23.993 46.3213 23.8379 46.3213 23.6475V21.8662C46.3213 21.6757 46.167 21.5207 45.9766 21.5205H2.33594Z" fill="#828181" stroke="#828181" stroke-width="0.2"/>
<path d="M28.709 25.8975C28.9052 25.7373 29.1929 25.7293 29.3984 25.8955L29.4766 25.9736C29.6373 26.1697 29.6444 26.458 29.4785 26.6631L24.7002 32.5439C24.5916 32.6764 24.4344 32.746 24.2764 32.7461C24.1853 32.7461 24.0941 32.7226 24.0117 32.6768L23.9326 32.624C23.6993 32.4343 23.6632 32.0907 23.8525 31.8564V31.8555L28.6309 25.9756L28.709 25.8975Z" fill="#828181" stroke="#828181" stroke-width="0.2"/>
<mask id="path-8-outside-1_3100_1483" maskUnits="userSpaceOnUse" x="11.1328" y="1.82031" width="26" height="18" fill="black">
<rect fill="white" x="11.1328" y="1.82031" width="26" height="18"/>
<path d="M36.1795 19.1943V6.82809L30.8358 10.8359L24.1562 2.82031L17.4765 10.8359L12.1328 6.82809V19.1943"/>
</mask>
<path d="M36.1795 19.1943V6.82809L30.8358 10.8359L24.1562 2.82031L17.4765 10.8359L12.1328 6.82809V19.1943" fill="#BF902D"/>
<path d="M36.1795 6.82809H36.3795V6.42809L36.0595 6.66809L36.1795 6.82809ZM30.8358 10.8359L30.6822 10.9639L30.8038 11.1099L30.9558 10.9959L30.8358 10.8359ZM24.1562 2.82031L24.3098 2.69228L24.1562 2.5079L24.0025 2.69228L24.1562 2.82031ZM17.4765 10.8359L17.3565 10.9959L17.5085 11.1099L17.6302 10.9639L17.4765 10.8359ZM12.1328 6.82809L12.2528 6.66809L11.9328 6.42809V6.82809H12.1328ZM36.1795 19.1943H36.3795V6.82809H36.1795H35.9795V19.1943H36.1795ZM36.1795 6.82809L36.0595 6.66809L30.7158 10.6759L30.8358 10.8359L30.9558 10.9959L36.2995 6.98809L36.1795 6.82809ZM30.8358 10.8359L30.9894 10.7078L24.3098 2.69228L24.1562 2.82031L24.0025 2.94835L30.6822 10.9639L30.8358 10.8359ZM24.1562 2.82031L24.0025 2.69228L17.3229 10.7078L17.4765 10.8359L17.6302 10.9639L24.3098 2.94835L24.1562 2.82031ZM17.4765 10.8359L17.5965 10.6759L12.2528 6.66809L12.1328 6.82809L12.0128 6.98809L17.3565 10.9959L17.4765 10.8359ZM12.1328 6.82809H11.9328V19.1943H12.1328H12.3328V6.82809H12.1328Z" fill="#828181" mask="url(#path-8-outside-1_3100_1483)"/>
<path d="M23.7363 2.47168C23.9195 2.25202 24.2636 2.22502 24.4873 2.38965L24.5752 2.47168L30.9219 10.0889L35.8525 6.39258L35.917 6.35156C36.0724 6.26646 36.2624 6.26155 36.4229 6.3418C36.6079 6.43441 36.7246 6.62282 36.7246 6.8291V19.1953C36.7245 19.4972 36.4804 19.7401 36.1797 19.7402C35.8787 19.7402 35.6339 19.4963 35.6338 19.1953V7.91895L31.1631 11.2725C30.9602 11.4264 30.6825 11.4157 30.4922 11.2607L30.417 11.1855L24.1562 3.67285L17.8955 11.1855C17.7093 11.4077 17.3802 11.4463 17.1494 11.2725L12.6777 7.91895V19.1953C12.6776 19.4963 12.4338 19.7402 12.1328 19.7402C11.8318 19.7402 11.588 19.4963 11.5879 19.1953V6.8291C11.5879 6.62309 11.704 6.43454 11.8877 6.3418L11.959 6.31152C12.1267 6.25496 12.3148 6.28392 12.459 6.39258L17.3877 10.0889L23.7363 2.47168Z" fill="#828181" stroke="#828181" stroke-width="0.2"/>
<path d="M36.1797 15.9775C36.4806 15.9776 36.7246 16.2215 36.7246 16.5225C36.7246 16.8234 36.4806 17.0673 36.1797 17.0674H12.1328C11.8318 17.0674 11.5879 16.8235 11.5879 16.5225C11.5879 16.2214 11.8318 15.9775 12.1328 15.9775H36.1797Z" fill="#828181" stroke="#828181" stroke-width="0.2"/>
<path d="M24.1562 8.06445C25.4412 8.06446 26.4824 9.10571 26.4824 10.3906C26.4824 11.6755 25.4412 12.7168 24.1562 12.7168C22.8713 12.7168 21.8301 11.6755 21.8301 10.3906C21.8301 9.10571 22.8713 8.06445 24.1562 8.06445Z" fill="white" stroke="#828181" stroke-width="0.2"/>
<path d="M24.1562 7.61914C25.6846 7.61915 26.9277 8.86232 26.9277 10.3906C26.9277 11.9189 25.6845 13.1621 24.1562 13.1621C22.6279 13.1621 21.3848 11.9189 21.3848 10.3906C21.3848 8.86231 22.6279 7.61914 24.1562 7.61914ZM24.1562 8.70898C23.2291 8.70898 22.4746 9.4635 22.4746 10.3906C22.4746 11.3177 23.2291 12.0723 24.1562 12.0723C25.0834 12.0723 25.8379 11.3177 25.8379 10.3906C25.8379 9.46351 25.0834 8.70899 24.1562 8.70898Z" fill="#828181" stroke="#828181" stroke-width="0.2"/>
<path d="M39.5938 0.950195C39.7889 0.950205 39.9941 1.04871 40.0635 1.25684L40.5557 2.7334C40.7564 3.33386 41.2355 3.81289 41.8359 4.01367L43.3125 4.50586C43.5145 4.5732 43.6513 4.76258 43.6514 4.97559C43.6514 5.18865 43.5146 5.37796 43.3125 5.44531L41.8359 5.9375C41.2355 6.13824 40.7565 6.6174 40.5557 7.21777L40.0635 8.69434C39.9961 8.89638 39.8068 9.03319 39.5938 9.0332C39.3807 9.0332 39.1914 8.89639 39.124 8.69434L38.6318 7.21777C38.431 6.61741 37.9519 6.13825 37.3516 5.9375L35.875 5.44531C35.673 5.37796 35.5361 5.18865 35.5361 4.97559C35.5362 4.76258 35.673 4.5732 35.875 4.50586L37.3516 4.01367C37.952 3.81288 38.4311 3.33385 38.6318 2.7334L39.124 1.25684C39.1934 1.0487 39.3986 0.950195 39.5938 0.950195ZM39.5703 3.04688C39.2713 3.94147 38.5587 4.6543 37.6641 4.95312L37.5957 4.97559L37.6641 4.99902C38.5589 5.29791 39.2714 6.01044 39.5703 6.90527L39.5928 6.97266L39.6162 6.90527C39.915 6.01063 40.6279 5.29802 41.5225 4.99902L41.5908 4.97559L41.5225 4.95312V4.95215C40.628 4.65316 39.9151 3.94137 39.6162 3.04688L39.5928 2.97852L39.5703 3.04688Z" fill="#828181" stroke="#828181" stroke-width="0.1"/>
<path d="M42.4141 44.2129C42.7151 44.2129 42.959 44.4568 42.959 44.7578C42.959 45.0588 42.7151 45.3027 42.4141 45.3027H41.5234C41.2224 45.3027 40.9785 45.0589 40.9785 44.7578C40.9785 44.4568 41.2224 44.2129 41.5234 44.2129H42.4141Z" fill="#828181" stroke="#828181" stroke-width="0.2"/>
<path d="M39.7422 44.2129C40.0432 44.2129 40.2871 44.4568 40.2871 44.7578C40.2871 45.0588 40.0432 45.3027 39.7422 45.3027H29.9453C29.6443 45.3027 29.4004 45.0589 29.4004 44.7578C29.4004 44.4568 29.6443 44.2129 29.9453 44.2129H39.7422Z" fill="#828181" stroke="#828181" stroke-width="0.2"/>
<path d="M37.9609 46.8848C38.2619 46.8848 38.5059 47.1287 38.5059 47.4297C38.5059 47.7307 38.2619 47.9746 37.9609 47.9746H26.3828C26.0818 47.9746 25.8379 47.7307 25.8379 47.4297C25.8379 47.1286 26.0818 46.8848 26.3828 46.8848H37.9609Z" fill="#828181" stroke="#828181" stroke-width="0.2"/>
</svg>
