<svg width="27" height="27" viewBox="0 0 27 27" fill="none" xmlns="http://www.w3.org/2000/svg">
<path d="M13.8202 9.97436C16.2984 9.97436 18.3074 7.96538 18.3074 5.48718C18.3074 3.00898 16.2984 1 13.8202 1C11.342 1 9.33301 3.00898 9.33301 5.48718C9.33301 7.96538 11.342 9.97436 13.8202 9.97436Z" stroke="white" stroke-width="1.3" stroke-linecap="round" stroke-linejoin="round"/>
<path d="M1 24.7179C1 19.0532 6.16603 14.4615 12.5385 14.4615" stroke="white" stroke-width="1.3" stroke-linecap="round" stroke-linejoin="round"/>
<path d="M20.2311 26C23.4174 26 26.0004 23.417 26.0004 20.2307C26.0004 17.0445 23.4174 14.4615 20.2311 14.4615C17.0449 14.4615 14.4619 17.0445 14.4619 20.2307C14.4619 23.417 17.0449 26 20.2311 26Z" stroke="white" stroke-width="1.3"/>
<path d="M19.5898 18.3077V20.8718H22.1539" stroke="white" stroke-width="1.3" stroke-linecap="round" stroke-linejoin="round"/>
</svg>
