<svg width="30" height="30" viewBox="0 0 30 30" fill="none" xmlns="http://www.w3.org/2000/svg">
<path d="M13.9942 19.6609C13.9332 19.7282 13.8765 19.7992 13.8242 19.8734C13.7705 19.9523 13.7277 20.0381 13.6967 20.1284C13.6558 20.2087 13.6272 20.2946 13.6117 20.3834C13.6047 20.4777 13.6047 20.5724 13.6117 20.6667C13.6069 20.8525 13.6457 21.0369 13.725 21.205C13.7886 21.3808 13.8901 21.5405 14.0223 21.6727C14.1545 21.8049 14.3142 21.9064 14.49 21.97C14.6596 22.045 14.8429 22.0837 15.0283 22.0837C15.2137 22.0837 15.3971 22.045 15.5667 21.97C15.7425 21.9064 15.9021 21.8049 16.0343 21.6727C16.1665 21.5405 16.268 21.3808 16.3317 21.205C16.3946 21.0328 16.4234 20.85 16.4167 20.6667C16.4177 20.4803 16.382 20.2954 16.3115 20.1228C16.241 19.9502 16.1371 19.7932 16.0058 19.6609C15.8741 19.5281 15.7174 19.4227 15.5448 19.3508C15.3722 19.2789 15.187 19.2418 15 19.2418C14.813 19.2418 14.6278 19.2789 14.4552 19.3508C14.2825 19.4227 14.1258 19.5281 13.9942 19.6609ZM15 0.833374C12.1981 0.833374 9.4591 1.66423 7.12941 3.22089C4.79971 4.77754 2.98393 6.99007 1.91169 9.57869C0.839451 12.1673 0.558904 15.0158 1.10553 17.7638C1.65215 20.5119 3.0014 23.0361 4.98264 25.0174C6.96388 26.9986 9.48814 28.3479 12.2362 28.8945C14.9843 29.4411 17.8327 29.1606 20.4213 28.0883C23.01 27.0161 25.2225 25.2003 26.7791 22.8706C28.3358 20.5409 29.1666 17.8019 29.1666 15C29.1666 13.1396 28.8002 11.2975 28.0883 9.57869C27.3763 7.85991 26.3328 6.29819 25.0173 4.98269C23.7018 3.6672 22.1401 2.62369 20.4213 1.91175C18.7026 1.19981 16.8604 0.833374 15 0.833374V0.833374ZM15 26.3334C12.7585 26.3334 10.5673 25.6687 8.70352 24.4234C6.83977 23.178 5.38714 21.408 4.52935 19.3371C3.67156 17.2662 3.44712 14.9875 3.88442 12.789C4.32172 10.5906 5.40111 8.57116 6.98611 6.98616C8.5711 5.40117 10.5905 4.32177 12.789 3.88447C14.9874 3.44718 17.2662 3.67161 19.3371 4.52941C21.408 5.3872 23.178 6.83982 24.4233 8.70358C25.6686 10.5673 26.3333 12.7585 26.3333 15C26.3333 18.0058 25.1393 20.8885 23.0139 23.0139C20.8884 25.1393 18.0058 26.3334 15 26.3334V26.3334ZM15 7.91671C14.2535 7.91623 13.52 8.11238 12.8734 8.48542C12.2268 8.85846 11.6899 9.39523 11.3167 10.0417C11.2141 10.2029 11.1453 10.3833 11.1143 10.5718C11.0833 10.7603 11.0908 10.9532 11.1362 11.1388C11.1817 11.3243 11.2642 11.4988 11.3788 11.6517C11.4935 11.8045 11.6378 11.9326 11.8032 12.0282C11.9687 12.1238 12.1517 12.185 12.3414 12.208C12.531 12.2311 12.7234 12.2155 12.9069 12.1623C13.0904 12.109 13.2612 12.0192 13.4091 11.8983C13.557 11.7773 13.6789 11.6277 13.7675 11.4584C13.8923 11.2422 14.072 11.0628 14.2885 10.9384C14.5049 10.814 14.7504 10.749 15 10.75C15.3757 10.75 15.736 10.8993 16.0017 11.165C16.2674 11.4306 16.4167 11.791 16.4167 12.1667C16.4167 12.5424 16.2674 12.9028 16.0017 13.1684C15.736 13.4341 15.3757 13.5834 15 13.5834C14.6243 13.5834 14.2639 13.7326 13.9983 13.9983C13.7326 14.264 13.5833 14.6243 13.5833 15V16.4167C13.5833 16.7924 13.7326 17.1528 13.9983 17.4184C14.2639 17.6841 14.6243 17.8334 15 17.8334C15.3757 17.8334 15.736 17.6841 16.0017 17.4184C16.2674 17.1528 16.4167 16.7924 16.4167 16.4167V16.1617C17.3536 15.8217 18.1412 15.1633 18.6419 14.3014C19.1426 13.4396 19.3244 12.4292 19.1556 11.4469C18.9868 10.4646 18.4782 9.57282 17.7186 8.92752C16.9589 8.28223 15.9967 7.92444 15 7.91671V7.91671Z" fill="#C0902C"/>
</svg>
