<svg width="26" height="26" viewBox="0 0 26 26" fill="none" xmlns="http://www.w3.org/2000/svg">
<rect width="26" height="26" rx="13" fill="white"/>
<path d="M13.0027 5.41666C11.5853 5.41472 10.1958 5.81044 8.99214 6.55883C7.78847 7.30722 6.81888 8.37828 6.19359 9.65026C5.5683 10.9222 5.31237 12.3441 5.45491 13.7543C5.59746 15.1645 6.13274 16.5064 6.99993 17.6275C7.86711 18.7486 9.03142 19.604 10.3605 20.0964C11.6896 20.5888 13.1302 20.6984 14.5185 20.4129C15.9068 20.1273 17.1871 19.4581 18.214 18.4811C19.2409 17.5042 19.9731 16.2587 20.3275 14.8864H18.3568C18.0096 15.8686 17.399 16.7364 16.5918 17.395C15.7845 18.0535 14.8118 18.4775 13.7799 18.6205C12.748 18.7635 11.6966 18.62 10.7407 18.2058C9.78485 17.7916 8.96125 17.1225 8.35999 16.2717C7.75872 15.421 7.40292 14.4213 7.3315 13.382C7.26008 12.3427 7.47577 11.3037 7.95501 10.3787C8.43425 9.45369 9.15857 8.67825 10.0488 8.13715C10.939 7.59604 11.9609 7.31011 13.0027 7.31061C13.7478 7.3117 14.4853 7.46133 15.1719 7.75075C15.8586 8.04017 16.4806 8.46358 17.0017 8.99622L13.9544 12.0455H20.5832V5.41666L18.3568 7.64205C17.6553 6.93625 16.8211 6.37625 15.9021 5.99432C14.9832 5.61238 13.9978 5.41606 13.0027 5.41666Z" fill="#BF902D"/>
</svg>
