<svg width="26" height="28" viewBox="0 0 26 28" fill="none" xmlns="http://www.w3.org/2000/svg">
<path fill-rule="evenodd" clip-rule="evenodd" d="M18.0923 4.88372C18.0923 5.41767 18.5317 5.86047 19.0615 5.86047C19.5914 5.86047 20.0308 5.41767 20.0308 4.88372V4.18828C20.9108 4.368 21.5557 4.66233 22.0338 5.14419C22.7214 5.83702 23.0238 6.87367 23.1582 8.46512H2.04185C2.17625 6.87367 2.47865 5.83702 3.16615 5.14419C3.64431 4.66233 4.28917 4.368 5.16923 4.18828V4.88372C5.16923 5.41767 5.60862 5.86047 6.13846 5.86047C6.66831 5.86047 7.10769 5.41767 7.10769 4.88372V3.96949C8.23975 3.90828 9.61994 3.90828 11.3077 3.90828H13.8923C15.5801 3.90828 16.9602 3.90828 18.0923 3.96949V4.88372ZM1.95526 10.4186H23.2447C23.2615 11.2768 23.2615 12.2471 23.2615 13.3488V16.6047C23.2615 21.2409 23.2615 23.5721 22.0338 24.8093C20.8062 26.0465 18.4929 26.0465 13.8923 26.0465H11.3077C6.70708 26.0465 4.39385 26.0465 3.16615 24.8093C1.93846 23.5721 1.93846 21.2409 1.93846 16.6047V13.3488C1.93846 12.2471 1.93846 11.2768 1.95526 10.4186ZM20.0308 2.20093V0.976744C20.0308 0.442791 19.5914 0 19.0615 0C18.5317 0 18.0923 0.442791 18.0923 0.976744V2.0134C16.9163 1.95349 15.5348 1.95349 13.8923 1.95349H11.3077C9.66517 1.95349 8.28369 1.95349 7.10769 2.0134V0.976744C7.10769 0.442791 6.66831 0 6.13846 0C5.60862 0 5.16923 0.442791 5.16923 0.976744V2.20093C3.72443 2.43274 2.66862 2.88465 1.79631 3.76372C2.22524e-07 5.57395 0 8.16558 0 13.3488V16.6047C0 21.7879 2.22524e-07 24.3795 1.79631 26.1898C3.59262 28 6.16431 28 11.3077 28H13.8923C19.0357 28 21.6074 28 23.4037 26.1898C25.2 24.3795 25.2 21.7879 25.2 16.6047V13.3488C25.2 8.16558 25.2 5.57395 23.4037 3.76372C22.5314 2.88465 21.4756 2.43274 20.0308 2.20093Z" fill="#828181"/>
<path d="M15.6801 15.1721C16.3475 15.2373 16.7966 15.3857 17.1318 15.7214C17.7335 16.3226 17.7335 17.2907 17.7335 19.2265C17.7335 21.1624 17.7335 22.1305 17.1318 22.7317C16.5302 23.3328 15.5626 23.3333 13.6268 23.3333H11.5735C9.63768 23.3333 8.66954 23.3333 8.06842 22.7317C7.46731 22.13 7.4668 21.1629 7.4668 19.2265C7.4668 17.2902 7.4668 16.3226 8.06842 15.7214C8.40363 15.3857 8.8528 15.2373 9.52013 15.1721" stroke="#BF902D"/>
<path d="M11.5724 15.1201H13.6257M12.0857 16.6601H13.1124M10.6273 18.0975L10.2577 17.7895C9.8948 17.4866 9.71308 17.3351 9.61606 17.1283C9.51904 16.9209 9.51904 16.6847 9.51904 16.2114V15.6334C9.51904 14.4235 9.51904 13.8182 9.8948 13.4424C10.2706 13.0667 10.8758 13.0667 12.0857 13.0667H13.1124C14.3223 13.0667 14.927 13.0667 15.3033 13.4424C15.6796 13.8182 15.679 14.4235 15.679 15.6334V16.2119C15.679 16.6842 15.679 16.9209 15.582 17.1283C15.485 17.3357 15.3033 17.4866 14.9404 17.7889L14.5708 18.0969C13.6283 18.8824 13.1565 19.2756 12.599 19.2756C12.0416 19.2756 11.5703 18.8829 10.6273 18.0969V18.0975Z" stroke="#BF902D" stroke-linecap="round"/>
<path d="M9.51904 17.1723L10.6273 18.0964C11.5703 18.8818 12.0416 19.2745 12.599 19.2745C13.1565 19.2745 13.6283 18.8818 14.5708 18.0958L15.679 17.1723" stroke="#BF902D" stroke-linecap="round"/>
</svg>
