<svg width="20" height="20" viewBox="0 0 20 20" fill="none" xmlns="http://www.w3.org/2000/svg">
<g clip-path="url(#clip0_1014_3584)">
<path d="M10.899 0.0302736C9.5609 -0.0738612 8.2175 0.13124 6.96014 0.631634C5.70277 1.13203 4.56093 1.91598 3.61224 2.9302C2.66354 3.94442 1.93024 5.16513 1.46217 6.50934C0.994107 7.85354 0.802257 9.28973 0.899664 10.7203C1.23641 16.0103 5.55792 20.0003 10.5155 20.0003H13.9671C14.4816 20.0003 14.9025 19.5503 14.9025 19.0003C14.9025 18.4503 14.4816 18.0003 13.9671 18.0003H10.5342C7.0452 18.0003 3.84615 15.5803 2.97624 11.9703C1.5825 6.17027 6.63362 0.760274 12.0589 2.26027C15.445 3.18027 17.7087 6.60027 17.7087 10.3303V11.4303C17.7087 12.2203 17.0445 13.0003 16.3056 13.0003C15.5666 13.0003 14.9025 12.2203 14.9025 11.4303V10.1803C14.9025 7.67027 13.2375 5.41027 10.9177 5.06027C10.1797 4.94295 9.42606 5.01581 8.71966 5.27279C8.01326 5.52977 7.3745 5.96344 6.85657 6.53769C6.33863 7.11194 5.95651 7.81016 5.74201 8.57421C5.52751 9.33825 5.48685 10.146 5.6234 10.9303C5.78746 11.8752 6.20299 12.7496 6.82018 13.4484C7.43737 14.1473 8.23001 14.6409 9.10306 14.8703C10.8242 15.3003 12.4611 14.7103 13.5368 13.5403C14.3693 14.7603 16.0343 15.4003 17.559 14.7503C18.8124 14.2203 19.5795 12.8503 19.5795 11.4103V10.3203C19.5795 5.01027 15.8472 0.390274 10.899 0.0302736V0.0302736ZM10.2255 13.0003C8.67278 13.0003 7.41935 11.6603 7.41935 10.0003C7.41935 8.34027 8.67278 7.00027 10.2255 7.00027C11.7783 7.00027 13.0317 8.34027 13.0317 10.0003C13.0317 11.6603 11.7783 13.0003 10.2255 13.0003Z" fill="#595959"/>
</g>
<defs>
<clipPath id="clip0_1014_3584">
<rect width="20" height="20" fill="white"/>
</clipPath>
</defs>
</svg>
