<svg width="64" height="55" viewBox="0 0 64 55" fill="none" xmlns="http://www.w3.org/2000/svg">
<path d="M7.45768 16.5003H13.791C14.001 16.5003 14.2023 16.4169 14.3508 16.2685C14.4993 16.12 14.5827 15.9186 14.5827 15.7087C14.5827 15.4987 14.4993 15.2973 14.3508 15.1489C14.2023 15.0004 14.001 14.917 13.791 14.917H7.45768C7.24772 14.917 7.04636 15.0004 6.89789 15.1489C6.74942 15.2973 6.66602 15.4987 6.66602 15.7087C6.66602 15.9186 6.74942 16.12 6.89789 16.2685C7.04636 16.4169 7.24772 16.5003 7.45768 16.5003Z" fill="#828181"/>
<path d="M7.45768 13.3333H15.3743C15.5843 13.3333 15.7857 13.2499 15.9341 13.1015C16.0826 12.953 16.166 12.7516 16.166 12.5417C16.166 12.3317 16.0826 12.1303 15.9341 11.9819C15.7857 11.8334 15.5843 11.75 15.3743 11.75H7.45768C7.24772 11.75 7.04636 11.8334 6.89789 11.9819C6.74942 12.1303 6.66602 12.3317 6.66602 12.5417C6.66602 12.7516 6.74942 12.953 6.89789 13.1015C7.04636 13.2499 7.24772 13.3333 7.45768 13.3333Z" fill="#828181"/>
<path d="M15.7241 54C22 54 22 46 22 46H9C9 46 9.44828 54 15.7241 54Z" fill="#BF902D"/>
<path d="M51.7241 54C58 54 58 46 58 46H45C45 46 45.4483 54 51.7241 54Z" fill="#BF902D"/>
<path d="M62.9538 43.417C62.2473 41.4557 61.0369 39.7149 59.4444 38.3697C57.8518 37.0245 55.9332 36.1223 53.8813 35.7537L52.868 31.1937C52.6742 30.3311 52.5785 29.4494 52.583 28.5653V23.182C53.1325 23.6802 53.7911 24.0429 54.506 24.2409C55.2208 24.4388 55.9721 24.4666 56.6997 24.322C56.8785 24.2855 57.0392 24.1883 57.1546 24.047C57.27 23.9056 57.333 23.7287 57.333 23.5462V15.7878C57.333 15.6053 57.27 15.4284 57.1546 15.287C57.0392 15.1457 56.8785 15.0485 56.6997 15.012C55.9721 14.8674 55.2208 14.8952 54.506 15.0931C53.7911 15.2911 53.1325 15.6537 52.583 16.152V14.7745C53.0437 14.6092 53.4426 14.3065 53.7257 13.9072C54.0089 13.508 54.1627 13.0314 54.1663 12.542V10.9587C54.1663 10.3288 53.9161 9.72468 53.4707 9.27928C53.0253 8.83388 52.4212 8.58366 51.7913 8.58366H43.8747C43.2448 8.58366 42.6407 8.83388 42.1953 9.27928C41.7499 9.72468 41.4997 10.3288 41.4997 10.9587V11.7503H37.5413C37.3314 11.7503 37.13 11.8337 36.9815 11.9822C36.8331 12.1307 36.7497 12.332 36.7497 12.542C36.7497 12.752 36.8331 12.9533 36.9815 13.1018C37.13 13.2503 37.3314 13.3337 37.5413 13.3337H41.6422C41.8075 13.7944 42.1102 14.1932 42.5094 14.4764C42.9087 14.7595 43.3852 14.9133 43.8747 14.917H44.6663V31.542C44.6663 33.0117 44.0825 34.4213 43.0432 35.4605C42.004 36.4998 40.5944 37.0837 39.1247 37.0837H31.208C30.5781 37.0837 29.974 36.8334 29.5286 36.388C29.0832 35.9426 28.833 35.3385 28.833 34.7087V25.557C29.4274 25.2044 29.8901 24.667 30.1506 24.0268C30.411 23.3866 30.4549 22.6788 30.2755 22.0114C30.096 21.344 29.7032 20.7536 29.1569 20.3303C28.6106 19.907 27.9408 19.674 27.2497 19.667H27.1072C27.1955 19.4121 27.2436 19.145 27.2497 18.8753V3.04199C27.2497 2.4121 26.9994 1.80801 26.5541 1.36261C26.1087 0.917214 25.5046 0.666992 24.8747 0.666992H4.29134C3.66145 0.666992 3.05736 0.917214 2.61196 1.36261C2.16656 1.80801 1.91634 2.4121 1.91634 3.04199V18.8753C1.91597 19.2208 1.9925 19.562 2.14039 19.8742C2.28828 20.1864 2.50381 20.4618 2.77134 20.6803C2.35293 21.1315 2.07502 21.6947 1.97157 22.3013C1.86813 22.9078 1.94362 23.5313 2.18883 24.0957C2.43405 24.66 2.83835 25.1407 3.35234 25.4789C3.86632 25.8172 4.46771 25.9984 5.08301 26.0003H7.47384C5.31974 27.1474 3.51763 28.8581 2.25996 30.9496C1.00228 33.041 0.336259 35.4348 0.333008 37.8753V44.2087C0.333008 44.4186 0.416415 44.62 0.564882 44.7685C0.713348 44.9169 0.914711 45.0003 1.12467 45.0003H4.29134C4.35718 45.2085 4.45321 45.4059 4.57634 45.5862C4.78688 45.8844 5.06378 46.1298 5.38523 46.3029C5.70669 46.4759 6.06393 46.5721 6.42884 46.5837H8.24967C8.06508 48.7096 8.82533 50.9023 10.3365 52.4135C11.6727 53.7497 13.485 54.5003 15.3747 54.5003C17.2643 54.5003 19.0766 53.7497 20.4128 52.4135C21.749 51.0773 22.4997 49.265 22.4997 47.3753C22.5225 47.1119 22.5225 46.847 22.4997 46.5837H24.3838C24.7622 46.5845 25.1352 46.4943 25.4714 46.3207C25.8076 46.1471 26.0971 45.8951 26.3155 45.5862C26.4386 45.4059 26.5347 45.2085 26.6005 45.0003H40.6922C40.758 45.2085 40.854 45.4059 40.9772 45.5862C41.1956 45.8951 41.4851 46.1471 41.8213 46.3207C42.1574 46.4943 42.5305 46.5845 42.9088 46.5837H44.6663C44.6435 46.847 44.6435 47.1119 44.6663 47.3753C44.6663 49.265 45.417 51.0773 46.7532 52.4135C48.0894 53.7497 49.9017 54.5003 51.7913 54.5003C53.681 54.5003 55.4933 53.7497 56.8295 52.4135C58.1657 51.0773 58.9163 49.265 58.9163 47.3753C58.9392 47.1119 58.9392 46.847 58.9163 46.5837H60.8005C61.1789 46.5845 61.5519 46.4943 61.8881 46.3207C62.2243 46.1471 62.5138 45.8951 62.7322 45.5862C62.9338 45.2661 63.0587 44.9038 63.0971 44.5275C63.1356 44.1513 63.0865 43.7712 62.9538 43.417ZM55.7497 16.5003V22.8337C54.9098 22.8337 54.1044 22.5 53.5105 21.9062C52.9166 21.3123 52.583 20.5068 52.583 19.667C52.583 18.8271 52.9166 18.0217 53.5105 17.4278C54.1044 16.834 54.9098 16.5003 55.7497 16.5003ZM43.083 12.542V10.9587C43.083 10.7487 43.1664 10.5473 43.3149 10.3989C43.4633 10.2504 43.6647 10.167 43.8747 10.167H51.7913C52.0013 10.167 52.2027 10.2504 52.3511 10.3989C52.4996 10.5473 52.583 10.7487 52.583 10.9587V12.542C52.583 12.752 52.4996 12.9533 52.3511 13.1018C52.2027 13.2503 52.0013 13.3337 51.7913 13.3337H43.8747C43.6647 13.3337 43.4633 13.2503 43.3149 13.1018C43.1664 12.9533 43.083 12.752 43.083 12.542ZM3.49967 3.04199C3.49967 2.83203 3.58308 2.63066 3.73155 2.4822C3.88001 2.33373 4.08138 2.25033 4.29134 2.25033H24.8747C25.0846 2.25033 25.286 2.33373 25.4345 2.4822C25.5829 2.63066 25.6663 2.83203 25.6663 3.04199V18.8753C25.6663 19.0853 25.5829 19.2867 25.4345 19.4351C25.286 19.5836 25.0846 19.667 24.8747 19.667H5.08301C4.90884 19.667 4.73467 19.667 4.56051 19.667C4.47142 19.6519 4.38043 19.6519 4.29134 19.667C4.08138 19.667 3.88001 19.5836 3.73155 19.4351C3.58308 19.2867 3.49967 19.0853 3.49967 18.8753V3.04199ZM5.08301 24.417C4.66308 24.417 4.26035 24.2502 3.96342 23.9532C3.66649 23.6563 3.49967 23.2536 3.49967 22.8337C3.49967 22.4137 3.66649 22.011 3.96342 21.7141C4.26035 21.4171 4.66308 21.2503 5.08301 21.2503H27.2497C27.6696 21.2503 28.0723 21.4171 28.3693 21.7141C28.6662 22.011 28.833 22.4137 28.833 22.8337C28.833 23.2536 28.6662 23.6563 28.3693 23.9532C28.0723 24.2502 27.6696 24.417 27.2497 24.417H5.08301ZM5.08301 29.832V33.1253C5.08301 33.3353 4.9996 33.5366 4.85113 33.6851C4.70267 33.8336 4.5013 33.917 4.29134 33.917H2.61301C3.15014 32.4016 3.99059 31.0116 5.08301 29.832ZM1.91634 37.8753C1.91456 37.0776 1.99414 36.2819 2.15384 35.5003H4.29134C4.92123 35.5003 5.52532 35.2501 5.97072 34.8047C6.41612 34.3593 6.66634 33.7552 6.66634 33.1253V28.3753C8.72186 26.8337 11.2219 26.0003 13.7913 26.0003H27.2497V34.7087C27.2497 35.7585 27.6667 36.7653 28.409 37.5076C29.1514 38.25 30.1582 38.667 31.208 38.667H39.1247C41.0131 38.6628 42.8229 37.9108 44.1582 36.5755C45.4935 35.2402 46.2455 33.4304 46.2497 31.542V14.917H50.9997V28.5653C51.0024 29.5501 51.1085 30.5319 51.3163 31.4945L52.2188 35.5003H51.7913C49.3555 35.5257 46.9861 36.2986 45.0039 37.7145C43.0216 39.1304 41.522 41.121 40.708 43.417H26.553C25.728 41.1175 24.2129 39.1289 22.215 37.723C20.217 36.3171 17.8335 35.5626 15.3905 35.5626C12.9475 35.5626 10.5641 36.3171 8.56606 37.723C6.56807 39.1289 5.05301 41.1175 4.22801 43.417H1.91634V37.8753ZM20.9163 47.3753C20.9163 48.8451 20.3325 50.2546 19.2932 51.2939C18.254 52.3331 16.8444 52.917 15.3747 52.917C13.9049 52.917 12.4954 52.3331 11.4561 51.2939C10.4169 50.2546 9.83301 48.8451 9.83301 47.3753C9.81098 47.1119 9.81098 46.8471 9.83301 46.5837H20.9163C20.9384 46.8471 20.9384 47.1119 20.9163 47.3753ZM24.9538 44.6678C24.8837 44.771 24.7892 44.8553 24.6787 44.9132C24.5683 44.9712 24.4453 45.0011 24.3205 45.0003H6.42884C6.30409 45.0011 6.18106 44.9712 6.07061 44.9132C5.96016 44.8553 5.86568 44.771 5.79551 44.6678C5.718 44.5589 5.66875 44.4325 5.65217 44.2998C5.63559 44.1672 5.6522 44.0325 5.70051 43.9078C6.41456 41.914 7.72725 40.1894 9.45896 38.9702C11.1907 37.7509 13.2568 37.0966 15.3747 37.0966C17.4925 37.0966 19.5587 37.7509 21.2904 38.9702C23.0221 40.1894 24.3348 41.914 25.0488 43.9078C25.0972 44.0325 25.1138 44.1672 25.0972 44.2998C25.0806 44.4325 25.0313 44.5589 24.9538 44.6678ZM57.333 47.3753C57.333 48.8451 56.7492 50.2546 55.7099 51.2939C54.6706 52.3331 53.2611 52.917 51.7913 52.917C50.3216 52.917 48.9121 52.3331 47.8728 51.2939C46.8335 50.2546 46.2497 48.8451 46.2497 47.3753C46.2276 47.1119 46.2276 46.8471 46.2497 46.5837H57.333C57.355 46.8471 57.355 47.1119 57.333 47.3753ZM61.3705 44.6678C61.3003 44.771 61.2059 44.8553 61.0954 44.9132C60.9849 44.9712 60.8619 45.0011 60.7372 45.0003H42.8455C42.7208 45.0011 42.5977 44.9712 42.4873 44.9132C42.3768 44.8553 42.2823 44.771 42.2122 44.6678C42.1347 44.5589 42.0854 44.4325 42.0688 44.2998C42.0523 44.1672 42.0689 44.0325 42.1172 43.9078C42.8311 41.9128 44.1433 40.1868 45.8748 38.9654C47.6062 37.7441 49.6725 37.0869 51.7913 37.0837C52.2683 37.0891 52.7443 37.1261 53.2163 37.1945C55.0683 37.4622 56.8126 38.2283 58.2628 39.4108C59.713 40.5933 60.8146 42.1477 61.4497 43.9078C61.5002 44.0312 61.5195 44.1652 61.5057 44.2978C61.4919 44.4304 61.4454 44.5575 61.3705 44.6678Z" fill="#828181"/>
<path d="M18.5413 0.666992H10.6247C10.1874 0.666992 9.83301 1.02143 9.83301 1.45866V6.20866C9.83301 6.64588 10.1874 7.00033 10.6247 7.00033H18.5413C18.9786 7.00033 19.333 6.64588 19.333 6.20866V1.45866C19.333 1.02143 18.9786 0.666992 18.5413 0.666992Z" fill="#BF902D"/>
</svg>
