<svg width="47" height="47" viewBox="0 0 47 47" fill="none" xmlns="http://www.w3.org/2000/svg">
<path fill-rule="evenodd" clip-rule="evenodd" d="M0 4.69794C0 2.09841 2.10155 0 4.69794 0H42.2815C44.8779 0 46.9794 2.09841 46.9794 4.69794V32.8668C46.9794 35.4632 44.8779 37.5616 42.2815 37.5616H30.593L24.7926 46.2528C24.6496 46.4673 24.4558 46.6431 24.2286 46.7647C24.0013 46.8864 23.7475 46.95 23.4897 46.95C23.2319 46.95 22.9781 46.8864 22.7508 46.7647C22.5236 46.6431 22.3298 46.4673 22.1868 46.2528L16.3895 37.5616H4.69794C2.10155 37.5616 0 35.4632 0 32.8637V4.69794ZM21.9989 27.342L34.0632 13.5551L31.708 11.4943L21.8486 22.7631L16.7685 17.6799L14.5511 19.8973L21.9989 27.342Z" fill="#14C189"/>
</svg>
