<svg width="59" height="54" viewBox="0 0 59 54" fill="none" xmlns="http://www.w3.org/2000/svg">
<path fill-rule="evenodd" clip-rule="evenodd" d="M24.043 54C23.9089 54 23.7786 53.9732 23.6561 53.9157C23.5909 53.8851 17.1436 50.7782 10.9835 43.9937C7.53569 40.1935 4.85024 35.9872 3.00759 31.4859C0.71672 25.889 -0.275479 19.8247 0.0654698 13.4617C0.0884551 13.025 0.414081 12.6649 0.846971 12.5998C4.09556 12.1094 7.26753 11.19 10.2786 9.86453C12.7112 8.79571 15.0519 7.45873 17.2278 5.8919C20.7369 3.36735 22.7864 1.00369 23.3304 0.337118C23.5067 0.122588 23.7672 0 24.043 0C24.3188 0 24.5793 0.122588 24.7555 0.337118L24.7938 0.383089C25.9661 1.8235 27.3222 3.08769 28.2531 3.89218C30.8888 6.17156 33.873 8.07551 37.1255 9.55423C37.589 9.76493 37.792 10.3089 37.5813 10.7724C37.3706 11.236 36.8266 11.439 36.3631 11.2283C32.9536 9.67682 29.82 7.67709 27.0502 5.28279C26.2342 4.57791 25.1118 3.53974 24.0353 2.32918C23.0086 3.45929 21.0855 5.38239 18.3043 7.38212C16.0211 9.02557 13.5693 10.4238 11.0218 11.5463C8.095 12.8335 5.0188 13.7567 1.87365 14.293C1.65912 20.1121 2.61684 25.6554 4.71616 30.785C6.47837 35.0871 9.04506 39.1133 12.3511 42.7527C14.7109 45.3538 17.5037 47.7941 20.4228 49.813C22.1314 50.9929 23.4377 51.7246 24.0506 52.0464C25.2612 51.4105 29.1304 49.2307 33.2984 45.3117C36.1103 42.6646 38.5161 39.7378 40.4468 36.6156C42.8411 32.7426 44.5152 28.5478 45.4155 24.1424C45.5189 23.6444 46.0016 23.3226 46.4996 23.426C46.9976 23.5295 47.3194 24.0121 47.216 24.5102C46.2698 29.1264 44.5191 33.5242 42.0098 37.581C39.9948 40.8411 37.4856 43.8905 34.5549 46.6487C29.2453 51.6442 24.4797 53.8929 24.4299 53.912C24.3073 53.9694 24.1771 54 24.043 54Z" fill="#828181"/>
<path fill-rule="evenodd" clip-rule="evenodd" d="M24.0426 48.4453C23.9085 48.4453 23.7783 48.4185 23.6557 48.361C23.6059 48.338 18.4917 45.8709 13.6226 40.5039C10.8912 37.4966 8.76504 34.1637 7.3093 30.601C5.49346 26.1687 4.71196 21.3686 4.98012 16.331C5.00311 15.8942 5.32874 15.5341 5.76163 15.469C8.3015 15.0859 10.7801 14.3657 13.1361 13.3314C15.04 12.4963 16.8674 11.4504 18.5721 10.2245C21.3074 8.25929 22.9048 6.41281 23.3301 5.89181C23.5063 5.67728 23.7668 5.55469 24.0426 5.55469C24.3184 5.55469 24.5789 5.67728 24.7552 5.89181L24.7935 5.93778C25.824 7.21346 29.7315 11.5653 36.6692 14.0209C37.1481 14.1895 37.3971 14.7143 37.2285 15.1932C37.06 15.6721 36.5351 15.9211 36.0563 15.7525C32.7157 14.5688 29.651 12.8449 26.9464 10.6306C26.1573 9.98319 25.0693 9.02164 24.0349 7.87237C23.1883 8.78412 21.7173 10.2207 19.6409 11.7148C17.8327 13.0134 15.8943 14.1244 13.8716 15.0131C11.6037 16.0092 9.22091 16.7332 6.78064 17.1623C6.6389 21.6559 7.38592 25.9388 9.00638 29.9C10.3855 33.2635 12.3929 36.4125 14.9787 39.2626C18.8441 43.5226 22.8129 45.8326 24.0426 46.4877C24.4755 46.2578 25.2417 45.8288 26.23 45.1852C28.1532 43.9248 29.9728 42.4653 31.6431 40.841C33.9454 38.6037 35.8762 36.1252 37.3779 33.478C39.2397 30.1949 40.4541 26.636 40.9828 22.8971C41.0556 22.3953 41.5191 22.0428 42.021 22.1156C42.5228 22.1884 42.8752 22.6519 42.8025 23.1538C40.3124 40.772 24.5828 48.2806 24.4257 48.3533C24.3069 48.4146 24.1767 48.4453 24.0426 48.4453Z" fill="#828181"/>
<path fill-rule="evenodd" clip-rule="evenodd" d="M47.101 25.2802C43.9635 25.2802 41.0176 24.0581 38.7995 21.8401C36.5814 19.622 35.3594 16.676 35.3594 13.5385C35.3594 10.401 36.5814 7.45509 38.7995 5.23701C41.0176 3.01893 43.9674 1.79688 47.101 1.79688C50.2385 1.79688 53.1845 3.01893 55.4026 5.23701C57.6206 7.45509 58.8427 10.401 58.8427 13.5385C58.8427 16.676 57.6206 19.622 55.4026 21.8401C53.1845 24.0581 50.2385 25.2802 47.101 25.2802ZM47.101 3.63953C44.4539 3.63953 41.9677 4.67004 40.0982 6.53951C38.2287 8.40898 37.1982 10.8952 37.1982 13.5385C37.1982 16.1819 38.2287 18.6681 40.0982 20.5376C41.9677 22.407 44.4577 23.4375 47.101 23.4375C49.7482 23.4375 52.2344 22.407 54.1039 20.5376C55.9734 18.6681 57.0039 16.1819 57.0039 13.5385C57.0039 10.8952 55.9734 8.40898 54.1039 6.53951C52.2344 4.67004 49.7443 3.63953 47.101 3.63953Z" fill="#BF902D"/>
<path fill-rule="evenodd" clip-rule="evenodd" d="M44.1125 18.1047C43.8635 18.1047 43.6145 18.0051 43.4344 17.8059L40.9214 15.0745C40.5766 14.699 40.6034 14.1206 40.975 13.7758C41.3504 13.431 41.9289 13.4578 42.2737 13.8294L44.1815 15.9058L51.9926 9.19022C52.3796 8.86076 52.958 8.9029 53.2875 9.28982C53.6169 9.67674 53.5748 10.2552 53.1879 10.5847L44.714 17.8825C44.5377 18.0319 44.327 18.1047 44.1125 18.1047Z" fill="#BF902D"/>
<path fill-rule="evenodd" clip-rule="evenodd" d="M24.2119 20.4111C22.3233 20.4111 20.7871 18.875 20.7871 16.9863C20.7871 15.0977 22.3233 13.5615 24.2119 13.5615C26.1005 13.5615 27.6367 15.0977 27.6367 16.9863C27.6329 18.875 26.0967 20.4111 24.2119 20.4111ZM24.2119 15.4003C23.3385 15.4003 22.6259 16.1129 22.6259 16.9863C22.6259 17.8598 23.3346 18.5723 24.2119 18.5723C25.0892 18.5723 25.7979 17.8598 25.7979 16.9863C25.7979 16.1129 25.0854 15.4003 24.2119 15.4003Z" fill="#828181"/>
<path fill-rule="evenodd" clip-rule="evenodd" d="M26.6254 40.4394H21.9057C21.3962 40.4394 20.9863 40.0295 20.9863 39.52C20.9863 39.0105 21.3962 38.6006 21.9057 38.6006H26.6254C27.1349 38.6006 27.5448 39.0105 27.5448 39.52C27.5448 40.0295 27.1349 40.4394 26.6254 40.4394Z" fill="#828181"/>
<path fill-rule="evenodd" clip-rule="evenodd" d="M26.6293 40.439C26.6101 40.439 26.591 40.439 26.5756 40.439C26.07 40.4083 25.6831 39.9754 25.7137 39.4659L26.1772 31.6318L26.4607 25.736C26.476 25.4181 26.6561 25.1307 26.9357 24.9737C27.2154 24.8204 27.5564 24.8204 27.8322 24.9775L31.6209 27.1228L31.6784 27.0653C31.6822 27.0615 31.6899 27.0538 31.686 27.0424C31.686 27.027 31.6784 27.0232 31.6746 27.0194C31.6592 27.0079 31.6439 26.9964 31.6286 26.9849L26.3305 22.8399C26.2309 22.7786 26.1198 22.7441 26.001 22.7441H22.2046C22.0782 22.7441 21.9594 22.7824 21.856 22.8514L16.9908 26.6248C16.9831 26.6324 16.9754 26.6363 16.964 26.6439C16.9065 26.6861 16.8873 26.7435 16.8835 26.7819C16.8797 26.8125 16.8797 26.8546 16.9027 26.8968L20.7489 24.9545C21.0285 24.8128 21.358 24.8243 21.6261 24.9813C21.8943 25.1384 22.0667 25.4219 22.082 25.7322L22.3655 31.6279L22.829 39.4621C22.8597 39.9678 22.4728 40.4045 21.9671 40.4351C21.4614 40.4658 21.0247 40.0789 20.994 39.5732L20.5305 31.7314C20.5305 31.7275 20.5305 31.7237 20.5305 31.7199L20.316 27.2339L17.6612 28.5747C17.6535 28.5785 17.642 28.5824 17.6344 28.59C16.9027 28.9271 16.033 28.7318 15.5197 28.1112C15.1596 27.6783 14.9949 27.1113 15.0677 26.552C15.1366 26.0004 15.4354 25.4947 15.8836 25.1652L20.7527 21.388C20.7604 21.3803 20.768 21.3765 20.7757 21.3688C21.1971 21.0662 21.6913 20.9053 22.2123 20.9053H26.0088C26.5068 20.9053 26.9895 21.0547 27.3994 21.3382C27.4148 21.3497 27.4301 21.3611 27.4454 21.3726L32.7474 25.5215C33.1841 25.8356 33.4637 26.3183 33.5212 26.8546C33.5748 27.4025 33.391 27.9426 33.0079 28.3372L32.9351 28.4138C32.3949 28.9769 31.556 29.1302 30.8511 28.7931C30.8319 28.7854 30.8128 28.7739 30.7936 28.7624L28.2307 27.3105L28.02 31.7199C28.02 31.7237 28.02 31.7275 28.02 31.7314L27.545 39.5732C27.518 40.0597 27.112 40.439 26.6293 40.439Z" fill="#828181"/>
<path fill-rule="evenodd" clip-rule="evenodd" d="M24.2661 40.4383C23.7566 40.4383 23.3467 40.0284 23.3467 39.5189V33.4546C23.3467 32.9451 23.7566 32.5352 24.2661 32.5352C24.7756 32.5352 25.1855 32.9451 25.1855 33.4546V39.5189C25.1855 40.0245 24.7756 40.4383 24.2661 40.4383Z" fill="#828181"/>
</svg>
