<svg width="55" height="44" viewBox="0 0 55 44" fill="none" xmlns="http://www.w3.org/2000/svg">
<path d="M31.1671 3.48462C31.2521 3.48462 31.3327 3.49802 31.4088 3.52036C31.7713 3.61417 32.0398 3.94477 32.0398 4.3379V14.9347L41.1832 5.8077C41.492 5.49944 41.8903 5.35202 42.2931 5.35202C42.6914 5.35202 43.0942 5.49944 43.403 5.8077L46.5582 8.95725C46.7059 9.10468 46.7417 9.35486 46.6253 9.55143C46.2583 10.1322 46.1241 10.8202 46.2001 11.4814C46.2807 12.1202 46.5671 12.7501 47.0684 13.2505C47.5607 13.7508 48.1872 14.0368 48.8407 14.1172C49.4941 14.1976 50.1654 14.0591 50.7517 13.7196C50.9441 13.5945 51.2082 13.6034 51.3783 13.7776L54.5334 16.9272C54.8423 17.2355 54.9899 17.6331 54.9899 18.0351C54.9899 18.4327 54.8423 18.8348 54.5334 19.1431L32.0398 41.5965V43.1557C32.0398 43.6203 31.6594 44 31.1939 44H2.4257C1.75885 44 1.15467 43.7275 0.716073 43.2897C0.273003 42.8474 0 42.2398 0 41.5742V2.29181C0 2.15332 0.0313282 2.02376 0.0939846 1.9076C0.214822 1.46533 0.447546 1.07219 0.760828 0.759468C1.23075 0.290385 1.87969 0 2.59129 0H20.1682C20.6336 0 21.0141 0.379734 21.0141 0.84435C21.0141 1.30897 20.6336 1.6887 20.1682 1.6887H2.59129C2.34514 1.6887 2.12137 1.79145 1.95577 1.95228C1.79466 2.11758 1.69172 2.34095 1.69172 2.58666C1.69172 2.83237 1.79466 3.05574 1.95577 3.22104C2.12137 3.38633 2.34514 3.48462 2.59129 3.48462H31.1671ZM32.0398 16.3286V21.2696C32.1606 21.2919 32.2994 21.3232 32.4605 21.3634L33.2392 20.5861L33.9553 21.3008L33.6241 21.6314L34.4789 21.8325L35.3516 20.9613L36.0722 21.6806L35.647 22.105L36.7346 22.3552L38.565 20.528C38.8201 20.2733 39.3124 20.3403 39.6526 20.6799C39.9927 21.0194 40.0643 21.5108 39.8047 21.7655L37.9743 23.5926L38.2249 24.6693L38.6456 24.2494L39.3661 24.9686L38.4979 25.8353L38.6948 26.6886L39.0215 26.3625L39.7421 27.0817L38.9678 27.8546L38.9723 27.8725C39.3437 29.4986 39.0126 28.9893 37.7773 30.2224L35.9872 25.5851L34.2149 27.3542C34.3357 28.212 34.3894 28.9 33.7136 29.5746L32.9573 28.8375C32.8991 28.4756 32.8722 28.2165 32.8409 28.0288C32.729 27.9752 32.6171 27.8993 32.5187 27.8055C32.4336 27.7206 32.362 27.6223 32.3128 27.524C32.2367 27.5151 32.1427 27.5061 32.0398 27.4927V35.0919L34.6132 37.6607L49.23 23.0655L37.2627 11.115L32.0398 16.3286ZM32.0398 23.2889V25.9872C32.3307 25.9783 32.635 26.0319 32.9796 26.0989L34.7475 24.3342L32.0398 23.2889ZM32.0398 36.4411V40.225L33.9374 38.3308L32.0398 36.4411ZM49.9103 22.3909L37.9385 10.4405L41.8813 6.50462C41.9977 6.38847 42.1454 6.33486 42.3065 6.33486C42.4542 6.33486 42.6153 6.39293 42.7317 6.50462L45.6228 9.3906C45.2916 10.0875 45.1663 10.8515 45.2558 11.6065C45.587 14.3584 48.514 15.8997 50.971 14.7337L53.8621 17.6197C53.9785 17.7358 54.0322 17.8832 54.0322 18.0441C54.0322 18.1915 53.974 18.3523 53.8621 18.4685L53.8487 18.4551L49.9103 22.3909ZM30.3481 5.17332H2.59129C2.27353 5.17332 1.9692 5.11524 1.69172 5.01249V41.5742C1.69172 41.7752 1.77676 41.9584 1.90654 42.0924C2.04081 42.2264 2.2243 42.3068 2.4257 42.3068H30.3481V5.17332Z" fill="#828181"/>
<path d="M9.26424 37.406C9.26424 37.8707 9.64466 38.2504 10.1101 38.2504H21.9029C22.3684 38.2504 22.7488 37.8707 22.7488 37.406C22.7488 36.9414 22.3684 36.5617 21.9029 36.5617H10.1101C9.64466 36.5617 9.26424 36.9414 9.26424 37.406Z" fill="#BF902D"/>
<path d="M5.82261 32.9833C5.82261 33.4479 6.20303 33.8276 6.66848 33.8276H25.349C25.8145 33.8276 26.1949 33.4479 26.1949 32.9833C26.1949 32.5186 25.8145 32.1389 25.349 32.1389H6.66848C6.20303 32.1389 5.82261 32.5186 5.82261 32.9833Z" fill="#BF902D"/>
<path d="M15.9662 27.4973C20.5211 27.4973 24.1975 23.8031 24.1975 19.2303C24.1975 14.6755 20.5211 10.999 15.9662 10.999M15.9662 27.4973C11.3935 27.4973 7.69922 23.8031 7.69922 19.2303C7.69922 14.6755 11.3935 10.999 15.9662 10.999M15.9662 27.4973V10.999M23.106 15.1236H8.79613M23.1519 23.2724H8.75021M7.74381 19.2482H24.153" stroke="#BF902D" stroke-linecap="round" stroke-linejoin="round"/>
<path d="M15.9572 27.4973C18.2349 27.4973 20.0729 23.8031 20.0729 19.2303C20.0729 14.6755 18.2349 10.999 15.9572 10.999C13.6707 10.999 11.8237 14.6755 11.8237 19.2303C11.8237 23.8031 13.6707 27.4973 15.9572 27.4973Z" stroke="#BF902D" stroke-linecap="round" stroke-linejoin="round"/>
</svg>
