<svg width="27" height="27" viewBox="0 0 27 27" fill="none" xmlns="http://www.w3.org/2000/svg">
<path d="M8.69462 4.73507C9.42631 4.73507 10.0196 4.14218 10.0196 3.40965V1.32458C10.0196 0.593367 9.42631 0 8.69462 0C7.96293 0 7.36914 0.593367 7.36914 1.32458V3.40959C7.36914 4.14218 7.96293 4.73507 8.69462 4.73507Z" fill="white"/>
<path d="M18.4661 4.73507C19.1974 4.73507 19.7911 4.14218 19.7911 3.40965V1.32458C19.7911 0.593367 19.1973 0 18.4661 0C17.7344 0 17.1406 0.593367 17.1406 1.32458V3.40959C17.1406 4.14218 17.7344 4.73507 18.4661 4.73507Z" fill="white"/>
<path d="M23.0577 1.88824H20.9554V3.40958C20.9554 4.78278 19.8391 5.89959 18.4663 5.89959C17.0935 5.89959 15.9768 4.78278 15.9768 3.40958V1.88824H11.1842V3.40958C11.1842 4.78278 10.0674 5.89959 8.69514 5.89959C7.32236 5.89959 6.20555 4.78278 6.20555 3.40958V1.88824H3.94146C1.88603 1.88824 0.219727 3.5546 0.219727 5.60997V23.2783C0.219727 25.3336 1.88603 27 3.94146 27H23.0577C25.113 27 26.7794 25.3336 26.7794 23.2783V5.60997C26.7794 3.5546 25.113 1.88824 23.0577 1.88824ZM24.9685 23.2783C24.9685 24.3318 24.1112 25.1891 23.0576 25.1891H3.94146C2.88788 25.1891 2.03063 24.3318 2.03063 23.2783V7.96203H24.9685V23.2783Z" fill="white"/>
<path d="M12.578 20.1715H9.22461V23.5249H12.578V20.1715Z" fill="white"/>
<path d="M12.578 14.9744H9.22461V18.3279H12.578V14.9744Z" fill="white"/>
<path d="M7.3803 20.1715H4.02734V23.5249H7.3803V20.1715Z" fill="white"/>
<path d="M7.3803 14.9744H4.02734V18.3279H7.3803V14.9744Z" fill="white"/>
<path d="M22.9712 9.77783H19.6182V13.1308H22.9712V9.77783Z" fill="white"/>
<path d="M17.7743 9.77783H14.4209V13.1308H17.7743V9.77783Z" fill="white"/>
<path d="M18.4585 15.4626L17.4611 14.6871L15.6448 17.0233L14.5665 16.1607L13.7773 17.1462L15.8553 18.8089L18.4585 15.4626Z" fill="white"/>
<path d="M22.9712 14.9744H19.6182V18.3279H22.9712V14.9744Z" fill="white"/>
<path d="M17.7743 20.1715H14.4209V23.5249H17.7743V20.1715Z" fill="white"/>
<path d="M12.578 9.77783H9.22461V13.1308H12.578V9.77783Z" fill="white"/>
</svg>
