<svg width="24" height="22" viewBox="0 0 24 22" fill="none" xmlns="http://www.w3.org/2000/svg">
<path fill-rule="evenodd" clip-rule="evenodd" d="M10.5729 1.8125C5.73468 1.8125 1.8125 5.73468 1.8125 10.5729C1.8125 12.7034 2.57193 14.6543 3.83582 16.1729C4.03339 16.4104 4.09646 16.732 4.00314 17.0265L3.11085 19.8417L6.74012 18.6984C6.93872 18.6358 7.15281 18.6435 7.34638 18.7202C8.34371 19.1156 9.43177 19.3333 10.5729 19.3333H12.9896C17.8279 19.3333 21.75 15.4112 21.75 10.5729C21.75 5.73468 17.8279 1.8125 12.9896 1.8125H10.5729ZM0 10.5729C0 4.73366 4.73366 0 10.5729 0H12.9896C18.8289 0 23.5625 4.73366 23.5625 10.5729C23.5625 16.4122 18.8289 21.1458 12.9896 21.1458H10.5729C9.31501 21.1458 8.10666 20.9258 6.98547 20.5214L3.10114 21.745C1.93472 22.1125 0.837979 21.0139 1.20746 19.8481L1.79812 20.0354L1.20746 19.8481L2.12987 16.9379C0.793223 15.1674 0 12.9618 0 10.5729Z" fill="white"/>
<path d="M7.55208 11.7814C8.21943 11.7814 8.76042 11.2404 8.76042 10.5731C8.76042 9.90574 8.21943 9.36475 7.55208 9.36475C6.88474 9.36475 6.34375 9.90574 6.34375 10.5731C6.34375 11.2404 6.88474 11.7814 7.55208 11.7814Z" fill="white"/>
<path d="M11.7816 11.7814C12.4489 11.7814 12.9899 11.2404 12.9899 10.5731C12.9899 9.90574 12.4489 9.36475 11.7816 9.36475C11.1142 9.36475 10.5732 9.90574 10.5732 10.5731C10.5732 11.2404 11.1142 11.7814 11.7816 11.7814Z" fill="white"/>
<path d="M16.0101 11.7814C16.6774 11.7814 17.2184 11.2404 17.2184 10.5731C17.2184 9.90574 16.6774 9.36475 16.0101 9.36475C15.3427 9.36475 14.8018 9.90574 14.8018 10.5731C14.8018 11.2404 15.3427 11.7814 16.0101 11.7814Z" fill="white"/>
</svg>
