<svg width="19" height="23" viewBox="0 0 19 23" fill="none" xmlns="http://www.w3.org/2000/svg">
<path d="M11 1.28125V5.56696C11 6.32473 11.301 7.05145 11.8368 7.58727C12.3727 8.12309 13.0994 8.42411 13.8571 8.42411H18.1429" stroke="white" stroke-width="1.5" stroke-linecap="round" stroke-linejoin="round"/>
<path d="M3.85742 14.1387H13.8574" stroke="white" stroke-width="1.5" stroke-linecap="round" stroke-linejoin="round"/>
<path d="M3.85742 16.9951H8.14314" stroke="white" stroke-width="1.5" stroke-linecap="round" stroke-linejoin="round"/>
<path d="M3.85714 11.2812H7.42857H11M18.1429 18.4241V8.42411L11 1.28125H3.85714C3.09938 1.28125 2.37266 1.58227 1.83684 2.11809C1.30102 2.65391 1 3.38063 1 4.13839V18.4241C1 19.1819 1.30102 19.9086 1.83684 20.4444C2.37266 20.9802 3.09938 21.2812 3.85714 21.2812H15.2857C16.0435 21.2812 16.7702 20.9802 17.306 20.4444C17.8418 19.9086 18.1429 19.1819 18.1429 18.4241Z" stroke="white" stroke-width="1.5" stroke-linecap="round" stroke-linejoin="round"/>
</svg>
