<svg width="21" height="23" viewBox="0 0 21 23" fill="none" xmlns="http://www.w3.org/2000/svg">
<path d="M16.18 7.32136L16.643 6.85736C17.0116 6.48858 17.5117 6.28134 18.0331 6.28125C18.5546 6.28116 19.0547 6.48821 19.4235 6.85686C19.7923 7.22551 19.9995 7.72556 19.9996 8.24701C19.9997 8.76845 19.7926 9.26858 19.424 9.63736L18.961 10.1014M16.18 7.32136C16.18 7.32136 16.238 8.30536 17.107 9.17436C17.976 10.0434 18.961 10.1014 18.961 10.1014M16.18 7.32136L11.92 11.5814C11.63 11.8694 11.486 12.0144 11.362 12.1734C11.2153 12.3614 11.0906 12.5634 10.988 12.7794C10.901 12.9614 10.837 13.1544 10.708 13.5414L10.295 14.7814L10.161 15.1824M18.961 10.1014L14.701 14.3614C14.411 14.6514 14.267 14.7954 14.108 14.9194C13.92 15.066 13.718 15.1907 13.502 15.2934C13.32 15.3804 13.127 15.4444 12.74 15.5734L11.5 15.9864L11.099 16.1204M10.161 15.1824L10.028 15.5844C9.99699 15.6777 9.99258 15.7778 10.0152 15.8734C10.0379 15.9691 10.0867 16.0566 10.1562 16.1261C10.2257 16.1956 10.3132 16.2445 10.4089 16.2671C10.5046 16.2898 10.6047 16.2853 10.698 16.2544L11.099 16.1204M10.161 15.1824L11.099 16.1204" stroke="white" stroke-width="1.5"/>
<path d="M6 12.2812H8.5M6 8.28125H12.5M6 16.2812H7.5M17.828 2.45325C16.657 1.28125 14.771 1.28125 11 1.28125H9C5.229 1.28125 3.343 1.28125 2.172 2.45325C1.001 3.62525 1 5.51025 1 9.28125V13.2812C1 17.0522 1 18.9382 2.172 20.1092C3.344 21.2802 5.229 21.2812 9 21.2812H11C14.771 21.2812 16.657 21.2812 17.828 20.1092C18.772 19.1662 18.955 17.7613 18.991 15.2812" stroke="white" stroke-width="1.5" stroke-linecap="round"/>
</svg>
