<svg width="16" height="16" viewBox="0 0 16 16" fill="none" xmlns="http://www.w3.org/2000/svg">
<path fill-rule="evenodd" clip-rule="evenodd" d="M5.73829 0.316178C4.19201 0.766606 2.81739 1.67262 1.79377 2.91602C0.770139 4.15942 0.145033 5.68247 0 7.28646H3.65714C3.87032 4.8456 4.57802 2.47366 5.73714 0.315035M3.65714 8.71504H0C0.144731 10.3191 0.76957 11.8423 1.793 13.0859C2.81642 14.3295 4.19091 15.2358 5.73714 15.6865C4.57802 13.5278 3.87032 11.1559 3.65714 8.71504ZM7.57029 15.9916C6.18466 13.794 5.33514 11.3014 5.09029 8.71504H10.8446C10.5997 11.3014 9.75019 13.794 8.36457 15.9916C8.09997 16.0048 7.83488 16.0048 7.57029 15.9916ZM10.1989 15.6853C11.7449 15.2347 13.1193 14.3286 14.1427 13.0852C15.1661 11.8418 15.791 10.3189 15.936 8.71504H12.2789C12.0657 11.1559 11.358 13.5278 10.1989 15.6865M12.2789 7.28761H15.936C15.7913 5.68355 15.1664 4.16035 14.143 2.91675C13.1196 1.67314 11.7451 0.766872 10.1989 0.316178C11.358 2.47481 12.0657 4.84675 12.2789 7.28761ZM7.57029 0.00989216C7.83526 -0.00329739 8.10073 -0.00329739 8.36571 0.00989216C9.75093 2.20759 10.6001 4.70017 10.8446 7.28646H5.09143C5.33943 4.68418 6.19086 2.18932 7.57029 0.00989216Z" fill="white"/>
</svg>
